<?xml version="1.0" encoding="utf-8"?>
<!-- Generator: Adobe Illustrator 16.0.0, SVG Export Plug-In . SVG Version: 6.00 Build 0)  -->
<!DOCTYPE svg PUBLIC "-//W3C//DTD SVG 1.1//EN" "http://www.w3.org/Graphics/SVG/1.1/DTD/svg11.dtd">
<svg version="1.1" id="Layer_1" xmlns="http://www.w3.org/2000/svg" xmlns:xlink="http://www.w3.org/1999/xlink" x="0px" y="0px"
	 width="320px" viewBox="0 0 210.169 124.891" enable-background="new 0 0 210.169 124.891"
	 xml:space="preserve">
<path fill="#BEBEBC" d="M125.216,14.008c0,0,10.433-4.521,7.693,12.423c-1.729,10.687-15.154,5.624-28.382,5.245
	S125.216,14.008,125.216,14.008z"/>
<path fill="#FFF7EE" d="M98.071,47.553c17.161-19.237,46.553-47.247,46.553-47.247c-8.148-2.599-36.467,11.551-76.033,36.265"/>
<g>
	<g>
		<defs>
			<path id="XMLID_3_" d="M171.762,52.868l20.046-16.819l-4.162,28.381c0,0,22.961,0.604,22.517,8.54
				c-0.444,7.935-160.943,2.131-188.826,1.906C-29.545,74.465,21.794,21.9,58.968,20.23
				C88.435,18.906,171.762,52.868,171.762,52.868z"/>
		</defs>
		<use xlink:href="#XMLID_3_"  overflow="visible" fill="#FFFFFF"/>
		<clipPath id="XMLID_2_">
			<use xlink:href="#XMLID_3_"  overflow="visible"/>
		</clipPath>
		<path clip-path="url(#XMLID_2_)" fill="#C8E1E6" d="M24.6,91.006c14.396-19.82,42.979-26.875,65.803-29.835
			c27.714-3.592,54.958-1.894,81.385,0.677c12.297,1.197,24.416,2.956,36.351,5.095c3.09,0.555,1.492,4.471-1.637,4.394
			c-24.072-0.59-47.361-4.014-71.421-4.729c-25.357-0.756-53.054-0.355-78.714,9.389c-10.311,3.92-19.865,9.989-27.863,17.318
			C26.292,95.345,22.849,93.413,24.6,91.006z"/>
		<path clip-path="url(#XMLID_2_)" fill="#BA2E26" d="M30.55,96.217C44.948,76.395,73.53,69.34,96.354,66.379
			c27.714-3.592,54.959-1.895,81.387,0.677c12.296,1.196,24.414,2.956,36.348,5.098c3.092,0.551,1.493,4.47-1.635,4.391
			c-24.075-0.589-47.36-4.014-71.422-4.729c-25.356-0.752-53.053-0.353-78.712,9.392c-10.312,3.917-19.865,9.987-27.863,17.317
			C32.243,100.555,28.801,98.622,30.55,96.217z"/>
		<path clip-path="url(#XMLID_2_)" fill="#BA2E26" d="M169.455,49.546c3.016-3.711,12.037-2.052,16.097-1.627
			c5.721,0.6,13.201,1.217,18.259,4.131c1.608,0.926,0.788,3.082-0.856,3.257c-5.397,0.57-11.471-1.848-16.766-2.789
			c-3.311-0.59-6.608-1.021-9.966-1.218c-2.122-0.128-4.76,0.287-6.639-0.804C169.223,50.286,169.212,49.847,169.455,49.546z"/>
	</g>
</g>
<path fill="#FFFFFF" d="M190.001,68.088l10.451,11.915c0,0-10.426,1.186-14.348-1.544c-6.496-4.518-11.279-11.684-11.279-11.684"/>
<path fill="#BEBEBC" d="M88.824,93.279c-3.054-8.353-0.62-16.696-0.62-16.696s18.288-4.025,39.499-3.728
	c4.041,0.057,7.538-0.041,8.275,16.653c0.453,10.278-11.263,9.571-23.812,9.681C105.925,99.977,91.192,99.754,88.824,93.279z"/>
<path fill="#FFFFFF" d="M54.077,62.829c67.097,35.772,95.52,65.464,101.893,61.746l-55.954-68.534"/>
<path fill="#39343A" d="M47.293,38.277l-1.125,10.974l-40.226-0.36c0,0,5.404-8.098,13.975-12.908L47.293,38.277z"/>
<g>
	<circle fill="#39343A" cx="63.376" cy="43.681" r="3.327"/>
	<circle fill="#39343A" cx="75.651" cy="44.082" r="3.326"/>
	<path fill="#39343A" d="M84.946,45.962c0.816,1.645,2.813,2.315,4.459,1.496c1.645-0.815,2.314-2.813,1.499-4.457
		c-0.82-1.646-2.816-2.315-4.46-1.499C84.797,42.319,84.128,44.316,84.946,45.962z"/>
	<circle fill="#39343A" cx="100.197" cy="44.882" r="3.328"/>
	<circle fill="#39343A" cx="112.47" cy="45.281" r="3.327"/>
</g>
</svg>
