<svg xmlns="http://www.w3.org/2000/svg" xmlns:xlink="http://www.w3.org/1999/xlink" viewBox="0 0 210.169 124.891"><path fill="#BEBEBC" d="M125.216 14.008s10.433-4.521 7.693 12.423c-1.729 10.687-15.154 5.624-28.382 5.245s20.689-17.668 20.689-17.668z"/><path fill="#FFF7EE" d="M98.071 47.553C115.232 28.316 144.624.306 144.624.306c-8.148-2.599-36.467 11.551-76.033 36.265"/><defs><path id="a" d="M171.762 52.868l20.046-16.819-4.162 28.381s22.961.604 22.517 8.54c-.444 7.935-160.943 2.131-188.826 1.906-50.882-.411.457-52.976 37.631-54.646 29.467-1.324 112.794 32.638 112.794 32.638z"/></defs><use fill="#FFF" xlink:href="#a" overflow="visible"/><clipPath id="b"><use xlink:href="#a" overflow="visible"/></clipPath><path fill="#C8E1E6" d="M24.6 91.006c14.396-19.82 42.979-26.875 65.803-29.835 27.714-3.592 54.958-1.894 81.385.677 12.297 1.197 24.416 2.956 36.351 5.095 3.09.555 1.492 4.471-1.637 4.394-24.072-.59-47.361-4.014-71.421-4.729-25.357-.756-53.054-.355-78.714 9.389-10.311 3.92-19.865 9.989-27.863 17.318-2.212 2.03-5.655.098-3.904-2.309z" clip-path="url(#b)"/><path fill="#BA2E26" d="M30.55 96.217C44.948 76.395 73.53 69.34 96.354 66.379c27.714-3.592 54.959-1.895 81.387.677 12.296 1.196 24.414 2.956 36.348 5.098 3.092.551 1.493 4.47-1.635 4.391-24.075-.589-47.36-4.014-71.422-4.729-25.356-.752-53.053-.353-78.712 9.392-10.312 3.917-19.865 9.987-27.863 17.317-2.214 2.03-5.656.097-3.907-2.308zM169.455 49.546c3.016-3.711 12.037-2.052 16.097-1.627 5.721.6 13.201 1.217 18.259 4.131 1.608.926.788 3.082-.856 3.257-5.397.57-11.471-1.848-16.766-2.789-3.311-.59-6.608-1.021-9.966-1.218-2.122-.128-4.76.287-6.639-.804-.361-.21-.372-.649-.129-.95z" clip-path="url(#b)"/><path fill="#FFF" d="M190.001 68.088l10.451 11.915s-10.426 1.186-14.348-1.544c-6.496-4.518-11.279-11.684-11.279-11.684"/><path fill="#BEBEBC" d="M88.824 93.279c-3.054-8.353-.62-16.696-.62-16.696s18.288-4.025 39.499-3.728c4.041.057 7.538-.041 8.275 16.653.453 10.278-11.263 9.571-23.812 9.681-6.241.788-20.974.565-23.342-5.91z"/><path fill="#FFF" d="M54.077 62.829c67.097 35.772 95.52 65.464 101.893 61.746l-55.954-68.534"/><path fill="#39343A" d="M47.293 38.277l-1.125 10.974-40.226-.36s5.404-8.098 13.975-12.908l27.376 2.294z"/><g fill="#39343A"><circle cx="63.376" cy="43.681" r="3.327"/><circle cx="75.651" cy="44.082" r="3.326"/><path d="M84.946 45.962c.816 1.645 2.813 2.315 4.459 1.496 1.645-.815 2.314-2.813 1.499-4.457-.82-1.646-2.816-2.315-4.46-1.499-1.647.817-2.316 2.814-1.498 4.46z"/><circle cx="100.197" cy="44.882" r="3.328"/><circle cx="112.47" cy="45.281" r="3.327"/></g></svg>
