<svg xmlns="http://www.w3.org/2000/svg" viewBox="0 0 512.001 512.001"><path d="M377.511 183.315c-1.539 0-3.094-.427-4.48-1.329-3.827-2.481-4.915-7.589-2.433-11.408 25.525-39.358 52.894-59.147 54.046-59.968 3.698-2.65 8.846-1.788 11.497 1.91 2.65 3.698 1.797 8.855-1.902 11.505-.258.194-26.089 18.967-49.8 55.529-1.578 2.439-4.229 3.761-6.928 3.761z" fill="#B4AA5A"/><g fill="#E6D7B9"><path d="M400.594 301.664l-16.017-10.885c-3.779-2.562-8.903-1.579-11.465 2.183-2.562 3.77-1.579 8.903 2.183 11.465l16.017 10.885c1.426.967 3.037 1.426 4.633 1.426 2.643 0 5.237-1.265 6.832-3.61 2.562-3.77 1.58-8.903-2.183-11.464zM429.446 265.826c-2.683 0-5.317-1.306-6.905-3.722l-22.688-34.548c-2.498-3.811-1.442-8.919 2.369-11.425 3.811-2.498 8.927-1.45 11.425 2.369l22.688 34.548c2.498 3.811 1.442 8.919-2.369 11.425-1.393.918-2.965 1.353-4.52 1.353zM412.938 290.577c-2.086 0-4.165-.782-5.769-2.352l-24.751-24.235c-3.263-3.191-3.311-8.411-.129-11.666 3.199-3.255 8.419-3.303 11.667-.129l24.751 24.235c3.263 3.191 3.311 8.411.129 11.667-1.62 1.65-3.755 2.48-5.898 2.48zM489.108 344.205c-3.352 0-6.494-2.054-7.735-5.374-.089-.241-5.06-13.012-21.125-32.115-2.933-3.489-2.481-8.694 1.008-11.626 3.489-2.941 8.686-2.481 11.626 1.008 18.217 21.681 23.743 36.393 23.969 37.014 1.571 4.278-.621 9.016-4.899 10.587-.935.345-1.901.506-2.844.506zM465.026 367.924c-2.965 0-5.825-1.595-7.299-4.391l-19.079-36.095c-2.135-4.028-.596-9.024 3.432-11.15 4.045-2.143 9.032-.588 11.151 3.432l19.079 36.095c2.135 4.028.596 9.024-3.432 11.151-1.234.652-2.555.958-3.852.958zM434.49 373.081c-2.739 0-5.423-1.361-6.993-3.859l-13.294-21.142c-2.426-3.859-1.265-8.952 2.595-11.376 3.859-2.409 8.952-1.265 11.376 2.595l13.294 21.142c2.426 3.859 1.265 8.952-2.595 11.376-1.361.852-2.885 1.264-4.383 1.264z"/></g><g fill="#B19D5A"><path d="M264.432 199.824c-2.672-5.518-41.251-49.178-57.752-49.308-24.751-.194-99.004 57.559-99.004 57.559l99.004 24.751 57.752-33.002zM223.18 290.577s-115.505 24.751-123.755 16.501c-16.501-16.501-16.501-49.502-16.501-49.502h123.755l16.501 33.001z"/></g><path d="M181.928 224.575s-103.816-50.19-123.755-49.502C1.762 177.019-1.629 249.092.421 249.326c31.712 3.61 189.758 24.751 189.758 24.751l-8.251-49.502z" fill="#B4AA5A"/><path d="M272.682 183.323s-103.704 22.241-114.527 52.664l-93.198-25.053c-4.383-1.16-8.927 1.426-10.112 5.825-1.184 4.399 1.426 8.927 5.825 10.112l103.162 27.733C187.374 289.9 266.34 374.407 280.931 389.583c17.189 17.875 44.689 3.437 49.502 0l-57.751-206.26z" fill="#AF915A"/><path d="M511.942 340.079c0-8.25-8.25-17.189-8.25-17.189-13.407 10.313-69.44 42.455-115.505 42.455 0 0-8.25-101.067 37.029-146.444 0 0-37.029-76.831-103.031-76.831-33.001 0-50.727 10.701-57.752 24.751-16.501 33.001-16.501 189.758 66.003 239.26 20.768 12.461 89.417-.219 132.006-13.407 53.281-16.499 49.5-46.407 49.5-52.595z" fill="#968C5A"/><path d="M272.682 175.072c-6.703-11.86-89.306 12.439-90.754 24.751-.688 5.843 4.109 37.12 16.501 41.252 24.751 8.25 66.003 8.25 74.253 8.25 8.25.001 18.234-41.991 0-74.253z" fill="#B4AA5A"/><path d="M272.682 257.576c-2.111 0-4.23-.805-5.841-2.426-.266-.266-27.144-27.103-48.012-40.068-3.876-2.409-5.06-7.493-2.659-11.361 2.401-3.876 7.493-5.06 11.361-2.659 22.511 13.986 49.84 41.275 50.992 42.436 3.215 3.223 3.215 8.444-.016 11.666-1.611 1.607-3.714 2.412-5.825 2.412z" fill="#968C5A"/><circle cx="351.062" cy="236.95" r="20.626" fill="#464655"/><circle cx="429.441" cy="117.32" r="16.501" fill="#B9EB5A"/></svg>