<svg xmlns="http://www.w3.org/2000/svg" width="512" height="512" viewBox="0 0 548.176 548.176"><path d="M524.2 297c-16-19.8-36.3-32.6-60.8-38.3 7.8-12 11.7-25.2 11.7-39.4 0-20.2-7-37.4-21.3-51.7-14.3-14.3-31.5-21.4-51.7-21.4-18.3 0-34 6-47.4 17.7-11.2-27-29-49-53.5-65.8-24.4-16.7-51.7-25-81.7-25-40.4 0-74.8 14.2-103.4 42.7-28.6 28.5-43 63-43 103.3 0 2.8.3 7 .7 12.2-22 10.3-40 26-53.4 46.7-13.5 21-20.3 44-20.3 69 0 35.2 12.5 65.3 37.5 90.3S92.7 475 128 475h310.5c30.3 0 56-10.6 77.6-32 21.5-21.4 32.2-47.3 32.2-77.5 0-25.7-8-48.5-24-68.4z" fill="#FFF"/></svg>