<svg xmlns="http://www.w3.org/2000/svg" width="214.305" height="121.75" viewBox="0 0 214.305 121.75"><path opacity=".1" fill="#272727" d="M214.305 94.334v-.001c0-.036-.003-.071-.003-.106-.001-.357-.009-.713-.027-1.066-.007-.157-.022-.312-.033-.468-.017-.232-.03-.464-.053-.693-.017-.176-.043-.35-.064-.524-.025-.208-.048-.416-.079-.622-.026-.181-.061-.358-.091-.538-.034-.197-.067-.395-.105-.59-.037-.182-.079-.361-.12-.541-.042-.19-.083-.38-.13-.567-.045-.181-.097-.359-.146-.539-.052-.184-.102-.368-.157-.55-.055-.181-.114-.36-.174-.539-.058-.174-.114-.349-.177-.522-.065-.184-.136-.365-.205-.547-.063-.163-.127-.327-.192-.489-.078-.187-.158-.372-.24-.556-.067-.151-.134-.301-.204-.451-.09-.192-.184-.382-.279-.572-.067-.134-.135-.268-.204-.401-.107-.202-.217-.401-.328-.599-.065-.113-.13-.227-.195-.339-.125-.213-.253-.425-.387-.634-.055-.089-.111-.177-.168-.264-.15-.231-.304-.459-.462-.684-.039-.058-.08-.115-.121-.172-.181-.252-.363-.5-.554-.744-.019-.022-.035-.044-.053-.066-4.28-5.479-10.943-9.006-18.437-9.006-1.334 0-2.643.118-3.916.333-5.763-11.019-17.295-18.543-30.592-18.543-12.814 0-23.989 6.99-29.941 17.36-1.48-.277-3.007-.429-4.567-.429-13.624 0-24.668 11.044-24.668 24.668 0 5.271 1.659 10.153 4.476 14.162.06.084.119.167.179.25.259.36.526.713.805 1.058.045.056.087.113.132.167.302.369.617.728.94 1.077.113.124.229.243.345.363.222.231.447.457.678.679.137.133.274.266.415.396.291.269.591.53.896.785.179.151.364.294.548.44.226.177.45.352.682.521.187.138.377.272.569.405.209.146.424.286.639.425.197.126.391.256.59.377.353.214.713.419 1.078.616.213.115.432.224.649.333.215.107.43.212.647.313.226.105.45.209.68.308.252.108.508.208.764.308.348.136.698.263 1.053.383.248.083.496.167.746.243.238.072.479.139.721.204.244.066.49.126.737.185.234.056.468.114.704.162.427.088.857.164 1.293.23.235.035.474.062.714.091.265.031.531.061.799.084.245.022.491.042.738.056.312.019.626.026.942.033.17.004.337.019.51.019 5.092 0 9.819-1.545 13.758-4.189 5.771 4.356 12.957 6.935 20.75 6.935h.002c3.478 0 6.833-.521 9.999-1.478.129-.04.261-.074.39-.115.172-.054.339-.115.51-.173.296-.098.593-.194.885-.3.004-.001.008-.003.014-.005 3.669-1.335 7.05-3.276 10.02-5.702 3.657 2.364 8.014 3.742 12.687 3.742h.005c8.755 0 16.379-4.812 20.389-11.931 1.907-3.386 3-7.291 3-11.452-.006-.002-.006-.003-.006-.004z"/><path fill="#FFF" d="M135.835 26.404c-1.936 0-3.832.171-5.681.482C121.801 10.91 105.079 0 85.8 0 67.221 0 51.02 10.135 42.39 25.171c-2.148-.402-4.36-.622-6.624-.622C16.013 24.549 0 40.562 0 60.315s16.013 35.766 35.766 35.766c7.386 0 14.246-2.239 19.943-6.073 8.375 6.314 18.796 10.062 30.091 10.062 12.004 0 23.016-4.23 31.637-11.276 5.3 3.432 11.613 5.432 18.398 5.432 18.729 0 33.911-15.182 33.911-33.91 0-18.731-15.182-33.912-33.911-33.912z"/><path fill="#E2E2E2" d="M169.746 60.322c0 18.719-15.184 33.903-33.919 33.903-6.774 0-13.091-1.997-18.396-5.425-8.624 7.045-19.638 11.27-31.636 11.27-11.297 0-21.716-3.738-30.084-10.055-5.71 3.833-12.566 6.074-19.948 6.074-13.754 0-25.698-7.761-31.663-19.152 6.519 7.072 15.872 11.5 26.265 11.5 7.382 0 14.238-2.241 19.948-6.074 8.368 6.316 18.787 10.068 30.084 10.068 11.998 0 23.012-4.238 31.636-11.284 5.305 3.428 11.621 5.439 18.396 5.439 18.734 0 33.919-15.184 33.919-33.917 0-5.602-1.351-10.878-3.766-15.521 5.694 6.06 9.164 14.212 9.164 23.174z"/></svg>