<svg xmlns="http://www.w3.org/2000/svg" viewBox="0 0 450.449 450.449"><g fill="#CE3E3E"><path d="M149.995 77.286c7.914-7.914 20.746-7.914 28.661 0l39.807 39.807-28.661 28.661-39.807-39.807c-7.915-7.914-7.915-20.746 0-28.661z"/><path d="M121.334 105.947c7.914-7.914 20.746-7.914 28.661 0l39.807 39.807-28.661 28.661-39.807-39.807c-7.914-7.914-7.914-20.746 0-28.661z"/><g><path d="M121.334 344.502c-7.914-7.914-7.914-20.746 0-28.661l39.807-39.807 28.661 28.661-39.807 39.807c-7.915 7.914-20.746 7.914-28.661 0z"/><path d="M149.995 373.163c-7.914-7.914-7.914-20.746 0-28.661l39.807-39.807 28.661 28.661-39.807 39.807c-7.915 7.914-20.747 7.914-28.661 0z"/></g></g><path d="M438.213 254.761l-67.55 67.56-22.93 22.93c-44.51 44.52-116.68 44.52-161.2 0l-120.03-120.03 120.04-120.03c44.51-44.51 116.68-44.51 161.19 0l22.93 22.93 67.55 67.56c2.48 2.48 4.58 5.19 6.3 8.06l-17.07 17.07c-3.32 3.32-4.98 7.67-4.98 12.02 0 4.36 1.66 8.71 4.98 12.03l22.88-22.88c.91 11.74-3.12 23.8-12.11 32.78z" fill="#F74B4B"/><g fill="#CE3E3E"><path d="M98.558 225.221H67.02C30.005 225.221 0 195.216 0 158.202h31.538c37.014 0 67.02 30.006 67.02 67.019zM98.558 225.221H67.02C30.005 225.221 0 255.227 0 292.24h31.538c37.014 0 67.02-30.005 67.02-67.019z"/></g><path d="M438.213 254.761l-67.55 67.56c-24.85-24.85-40.22-59.18-40.22-97.1s15.37-72.25 40.22-97.1l67.55 67.56c2.48 2.48 4.58 5.19 6.3 8.06l-17.07 17.07c-3.32 3.32-4.98 7.67-4.98 12.02 0 4.36 1.66 8.71 4.98 12.03l22.88-22.88c.91 11.74-3.12 23.8-12.11 32.78z" fill="#CE3E3E"/><circle cx="379.631" cy="225.221" r="22.238" fill="#FFF"/><circle cx="379.631" cy="225.221" r="13.606" fill="#4D4D4D"/><path d="M287.653 356.839h-70.398c0-30.017 24.334-54.351 54.351-54.351h45.402v24.996c.001 16.212-13.142 29.355-29.355 29.355z" fill="#CE3E3E"/></svg>