<svg xmlns="http://www.w3.org/2000/svg" viewBox="0 0 512.001 512.001"><g fill="#FFC878"><path d="M156.904 111.484c-12.387-20.645-43.355-49.548-74.323-49.548 0 0 16.516 16.516 16.516 66.065h24.774l33.033-16.517zM67.649 242.44c-8.354 8.611-12.254 10.361-18.101 1.174-7.226-11.355-38.194-69.161-41.29-66.065S0 180.646 0 194.065c0 13.419 16.516 58.839 16.516 74.323C16.516 283.831 0 329.13 0 342.514c0 13.383 5.161 13.383 8.258 16.472s34.065-54.564 41.29-65.89c5.852-9.171 9.754-7.415 18.122 1.192l-.021-51.848z"/></g><path d="M512 227.097l-12.083-24.165c-4.672-9.345-5.728-19.846-4.615-30.234.246-2.296.247-4.667-.029-7.099-1.211-10.68-8.319-19.848-17.681-25.128-4.267-2.406-8.325-3.647-12.182-4.057-9.703-1.03-18.785-4.856-25.384-12.023-3.817-4.22-7.834-8.252-11.972-12.157-.096-.09-.19-.182-.286-.273-38.419-36.117-90.103-58.285-146.994-58.285-118.581 0-214.71 96.129-214.71 214.71s96.129 214.71 214.71 214.71 214.71-96.129 214.71-214.71c0-.548-.037-1.087-.041-1.633l.122.25c.434-18.888 9.386-32.855 16.435-39.906z" fill="#FFEBD2"/><path d="M512 227.097l-12.083-24.165c-4.672-9.345-5.728-19.846-4.615-30.234.246-2.296.247-4.667-.029-7.099-1.211-10.68-8.319-19.848-17.681-25.128-4.267-2.406-8.325-3.647-12.182-4.057-9.703-1.03-18.785-4.856-25.384-12.023-3.817-4.22-7.834-8.252-11.972-12.157-.096-.09-.19-.182-.286-.273-38.419-36.117-90.103-58.285-146.994-58.285-118.581 0-214.71 96.129-214.71 214.71 0 25.718 4.536 50.373 12.827 73.226 53.238-15.42 30.898-145.21 160.593-180.582 90.839-24.774 165.162 8.258 198.194 82.581 22.499 50.622 41.29 49.548 57.605 32.727.096-2.645.201-5.285.201-7.953 0-.548-.037-1.087-.041-1.633l.122.25c.434-18.887 9.386-32.854 16.435-39.905z" fill="#FFD77D"/><circle cx="462.453" cy="169.291" r="33.032" fill="#FFC878"/><path d="M470.711 243.613c-2.137 0-4.275-.823-5.895-2.468-3.194-3.258-3.145-8.484.105-11.685 7.282-7.145 15.927-10.621 26.435-10.621h12.387c4.565 0 8.258 3.693 8.258 8.258s-3.693 8.258-8.258 8.258h-12.387c-6.21 0-10.653 1.758-14.855 5.895-1.614 1.573-3.702 2.363-5.79 2.363z" fill="#FAB45F"/><path d="M346.839 28.903c-11.011 0 0 74.323 0 74.323l24.774 16.516 24.774-74.323c.001 0-24.432-16.516-49.548-16.516z" fill="#FFC878"/><path d="M146.251 262.524c-.831-.742-1.654-1.322-2.726-1.734-1.484-.662-3.137-.831-4.791-.5-.492.089-.992.25-1.484.5-.5.161-.992.411-1.492.742-.411.25-.823.662-1.234.992-.742.823-1.322 1.654-1.734 2.726-.5.992-.662 2.065-.662 3.137 0 2.226.823 4.29 2.395 5.863 1.565 1.565 3.629 2.395 5.863 2.395 2.226 0 4.29-.831 5.863-2.395 1.565-1.572 2.395-3.637 2.395-5.863 0-1.073-.25-2.145-.662-3.137-.409-1.072-.99-1.903-1.731-2.726z" fill="#FFD77D"/><path d="M96.702 262.524c-.411-.33-.831-.742-1.322-.992-.411-.33-.911-.581-1.403-.742-.5-.25-.992-.411-1.484-.5-1.654-.33-3.306-.161-4.791.5-1.073.411-1.984.992-2.726 1.734-.742.823-1.322 1.654-1.734 2.726-.411.992-.662 2.065-.662 3.137 0 2.226.823 4.29 2.395 5.863.823.742 1.734 1.322 2.726 1.815.992.411 2.065.581 3.137.581 2.226 0 4.29-.831 5.863-2.395 1.565-1.572 2.395-3.637 2.395-5.863 0-1.073-.25-2.145-.662-3.137-.41-1.073-.991-1.904-1.732-2.727z" fill="#FFC878"/><g fill="#FFD77D"><path d="M195.798 262.524c-1.903-1.903-4.791-2.807-7.516-2.234-.492.089-.992.25-1.484.5-.5.161-.992.411-1.492.742-.411.25-.823.662-1.234.992-.742.823-1.322 1.734-1.734 2.726-.411.992-.662 2.065-.662 3.137 0 2.226.823 4.29 2.395 5.863.823.742 1.734 1.322 2.726 1.815.992.411 2.065.581 3.137.581 1.073 0 2.145-.169 3.137-.581.992-.492 1.895-1.073 2.726-1.815 1.565-1.572 2.395-3.637 2.395-5.863 0-1.073-.25-2.145-.662-3.137-.409-1.072-.99-1.903-1.732-2.726zM245.347 262.524c-2.314-2.314-6.033-2.976-9-1.734-1.073.411-1.903.992-2.726 1.734-.742.823-1.322 1.654-1.734 2.726-.5.992-.662 2.065-.662 3.137 0 2.226.823 4.29 2.395 5.863.823.742 1.734 1.322 2.726 1.815.992.411 2.065.581 3.137.581s2.145-.169 3.137-.581c.992-.492 1.895-1.073 2.726-1.815 1.565-1.572 2.395-3.637 2.395-5.863 0-1.073-.25-2.145-.662-3.137-.409-1.072-.99-1.903-1.732-2.726zM294.895 262.524c-1.984-1.903-4.791-2.807-7.516-2.234-.492.089-.992.25-1.484.5-.5.161-.992.411-1.492.742-.411.25-.823.662-1.234.992-.742.823-1.322 1.654-1.734 2.726-.5.992-.662 2.065-.662 3.137 0 2.226.823 4.29 2.395 5.863 1.565 1.565 3.629 2.395 5.863 2.395 2.226 0 4.29-.831 5.863-2.395 1.565-1.572 2.395-3.637 2.395-5.863 0-1.073-.25-2.145-.662-3.137-.409-1.072-.99-1.903-1.732-2.726zM344.444 262.524c-.411-.33-.831-.742-1.242-.992-.492-.33-.992-.581-1.484-.742-.5-.25-.992-.411-1.572-.5-1.565-.33-3.218-.161-4.702.5-1.073.411-1.904.992-2.726 1.734-.742.823-1.322 1.654-1.734 2.726-.411.992-.662 2.065-.662 3.137 0 2.226.823 4.29 2.395 5.863 1.565 1.565 3.629 2.395 5.863 2.395 2.226 0 4.29-.831 5.863-2.395 1.565-1.572 2.395-3.637 2.395-5.863 0-1.073-.25-2.145-.662-3.137-.409-1.072-.99-1.903-1.732-2.726zM393.992 262.524c-.411-.33-.831-.742-1.322-.992-.411-.33-.911-.581-1.403-.742-.5-.25-.992-.411-1.572-.5-1.073-.242-2.145-.242-3.137 0-.573.089-1.073.25-1.565.5-.5.161-.992.411-1.492.742-.411.25-.823.662-1.234.992-.742.823-1.322 1.654-1.734 2.726-.5.992-.662 2.065-.662 3.137 0 2.226.823 4.29 2.395 5.863 1.565 1.565 3.629 2.395 5.863 2.395 1.073 0 2.145-.169 3.137-.581.992-.492 1.895-1.073 2.726-1.815 1.565-1.572 2.395-3.637 2.395-5.863 0-1.073-.25-2.145-.662-3.137-.41-1.071-.991-1.902-1.733-2.725zM443.54 262.524c-.831-.742-1.734-1.322-2.726-1.734-1.484-.662-3.137-.831-4.791-.5-.492.089-.992.25-1.484.5-.5.161-.992.411-1.492.742-.411.25-.823.662-1.234.992-.742.823-1.322 1.654-1.734 2.726-.411.992-.662 2.065-.662 3.137 0 2.226.823 4.29 2.395 5.863 1.565 1.565 3.629 2.395 5.863 2.395 2.226 0 4.29-.831 5.863-2.395 1.565-1.572 2.395-3.637 2.395-5.863 0-1.073-.25-2.145-.662-3.137-.407-1.072-.988-1.903-1.731-2.726z"/></g><path d="M494.823 265.251c-.411-1.073-.992-1.903-1.734-2.726-.411-.33-.831-.742-1.322-.992-.411-.33-.911-.581-1.403-.742-.5-.25-.992-.411-1.572-.5-1.565-.33-3.218-.161-4.702.5-1.073.411-1.903.992-2.726 1.734-.742.823-1.322 1.654-1.734 2.726-.411.992-.662 2.065-.662 3.137 0 2.226.823 4.29 2.395 5.863 1.565 1.565 3.629 2.395 5.863 2.395 2.226 0 4.29-.831 5.863-2.395 1.565-1.572 2.395-3.637 2.395-5.863.001-1.073-.169-2.145-.661-3.137z" fill="#FFC878"/><path d="M169.702 228.5c-.411-.33-.911-.581-1.403-.742-.5-.25-.992-.411-1.484-.5-1.654-.33-3.306-.161-4.791.5-1.073.411-1.903.992-2.726 1.734-1.492 1.565-2.395 3.718-2.395 5.863 0 1.073.25 2.145.662 3.137.412.992.992 1.895 1.734 2.726.823.742 1.734 1.322 2.726 1.734.992.411 2.065.662 3.137.662 2.226 0 4.29-.831 5.863-2.395.742-.831 1.322-1.734 1.734-2.726.412-.992.662-2.065.662-3.137 0-2.145-.911-4.298-2.395-5.863-.413-.331-.832-.743-1.324-.993z" fill="#FFD77D"/><path d="M121.476 229.492c-1.903-1.903-4.791-2.807-7.516-2.234-.492.089-.992.25-1.484.5-.5.161-.992.411-1.492.742-.411.25-.823.662-1.234.992-1.492 1.565-2.395 3.718-2.395 5.863 0 1.073.161 2.145.573 3.137.419.992 1.081 1.895 1.823 2.726 1.565 1.565 3.629 2.395 5.863 2.395 1.073 0 2.145-.25 3.137-.662.992-.412 1.895-.992 2.726-1.734.742-.831 1.322-1.734 1.734-2.726s.662-2.065.662-3.137c0-1.073-.25-2.145-.662-3.137-.412-1.071-.993-1.902-1.735-2.725z" fill="#FFC878"/><g fill="#FFD77D"><path d="M217.847 227.758c-1.484-.662-3.137-.831-4.791-.5-.492.089-.992.25-1.484.5-.5.161-.992.411-1.492.742-.411.25-.823.662-1.234.992-1.492 1.565-2.395 3.718-2.395 5.863 0 1.073.161 2.145.573 3.137.5.992 1.081 1.895 1.823 2.726.823.742 1.654 1.322 2.726 1.734.992.411 2.065.662 3.137.662 2.226 0 4.29-.831 5.863-2.395.742-.831 1.322-1.734 1.734-2.726.412-.992.662-2.065.662-3.137 0-2.145-.911-4.298-2.395-5.863-.832-.743-1.735-1.323-2.727-1.735zM268.798 228.5c-.411-.33-.911-.581-1.403-.742-.5-.25-.992-.411-1.572-.5-.992-.242-2.145-.242-3.218 0-.492.089-.992.25-1.484.5-.5.161-.992.411-1.492.742-.411.25-.823.662-1.234.992-1.492 1.565-2.395 3.718-2.395 5.863 0 1.073.25 2.145.662 3.137.412.992.992 1.895 1.734 2.726 1.565 1.565 3.629 2.395 5.863 2.395 2.226 0 4.29-.831 5.863-2.395.742-.831 1.322-1.734 1.734-2.726.412-.992.662-2.065.662-3.137 0-2.145-.911-4.298-2.395-5.863-.413-.33-.832-.742-1.325-.992zM307.944 229.492c-1.492 1.565-2.395 3.718-2.395 5.863 0 1.073.161 2.145.573 3.137.5.992 1.081 1.895 1.823 2.726 1.565 1.565 3.629 2.395 5.863 2.395 2.226 0 4.29-.831 5.863-2.395.742-.831 1.322-1.734 1.734-2.726.412-.992.662-2.065.662-3.137 0-2.145-.911-4.298-2.395-5.863-3.14-3.056-8.672-3.056-11.728 0zM367.895 228.5c-.411-.33-.911-.581-1.403-.742-.5-.25-.992-.411-1.572-.5-2.637-.573-5.532.33-7.427 2.234-.742.823-1.322 1.654-1.734 2.726-.411.992-.662 2.065-.662 3.137 0 1.073.25 2.145.662 3.137.412.992.992 1.895 1.734 2.726.823.742 1.734 1.322 2.726 1.734.992.412 2.065.662 3.137.662 2.226 0 4.29-.831 5.863-2.395.742-.831 1.322-1.734 1.734-2.726.412-.992.662-2.065.662-3.137 0-2.145-.911-4.298-2.395-5.863-.413-.331-.832-.743-1.325-.993zM417.444 228.5c-.411-.33-.911-.581-1.403-.742-.5-.25-.992-.411-1.572-.5-1.073-.242-2.145-.242-3.137 0-.573.089-1.073.25-1.565.5-.5.161-.992.411-1.403.742-.5.25-.911.662-1.322.992-1.492 1.565-2.395 3.718-2.395 5.863 0 1.073.25 2.145.662 3.137.412.992.992 1.895 1.734 2.726 1.565 1.565 3.629 2.395 5.863 2.395 1.073 0 2.145-.25 3.137-.662.992-.412 1.895-.992 2.645-1.734.823-.831 1.403-1.734 1.815-2.726s.662-2.065.662-3.137c0-2.145-.911-4.298-2.475-5.863-.335-.329-.754-.741-1.246-.991zM144.927 327.597c-.411-.33-.911-.581-1.403-.742-.5-.25-.992-.411-1.572-.5-2.637-.492-5.532.33-7.427 2.234-.33.411-.742.823-.992 1.234-.33.5-.581.992-.742 1.492-.25.492-.411.992-.5 1.484-.162.581-.162 1.153-.162 1.654 0 1.073.161 2.145.573 3.137.419.992 1.081 1.895 1.823 2.726 1.565 1.565 3.629 2.395 5.863 2.395 2.226 0 4.29-.831 5.863-2.395.742-.831 1.322-1.734 1.734-2.726.412-.992.662-2.065.662-3.137 0-2.234-.911-4.298-2.395-5.863-.413-.331-.832-.743-1.325-.993zM98.435 331.315c-.169-.5-.411-.992-.742-1.492-.33-.411-.662-.823-.992-1.234-2.314-2.234-5.944-2.976-9-1.734-1.073.411-1.903.992-2.726 1.734-1.491 1.564-2.394 3.628-2.394 5.862 0 1.073.161 2.145.573 3.137.5.992 1.081 1.895 1.823 2.726.823.742 1.654 1.322 2.726 1.815.992.411 2.065.581 3.137.581s2.145-.169 3.137-.581c.992-.492 1.895-1.073 2.726-1.815.742-.831 1.322-1.734 1.734-2.726.412-.992.66-2.065.66-3.137 0-.5-.081-1.073-.169-1.654-.081-.49-.243-.99-.493-1.482zM193.073 326.855c-3.057-1.242-6.693-.5-9 1.734-.33.411-.742.823-.992 1.234-.33.5-.581.992-.742 1.492-.25.492-.411.992-.5 1.484-.081.581-.161 1.153-.161 1.654 0 1.073.25 2.145.662 3.137.412.992.992 1.895 1.734 2.726 1.565 1.565 3.629 2.395 5.863 2.395 1.073 0 2.145-.169 3.137-.581.992-.492 1.895-1.073 2.726-1.815.742-.831 1.322-1.734 1.734-2.726.412-.992.662-2.065.662-3.137 0-2.234-.911-4.298-2.395-5.863-.833-.742-1.656-1.322-2.728-1.734zM247.081 331.315c-.169-.5-.411-.992-.742-1.492-.33-.411-.662-.823-1.073-1.234-.75-.742-1.654-1.322-2.646-1.734-3.057-1.242-6.774-.5-9 1.734-.33.411-.742.823-.992 1.234-.33.5-.581.992-.742 1.492-.25.492-.411.992-.5 1.484-.079.58-.16 1.152-.16 1.653 0 1.073.25 2.145.662 3.137.412.992.992 1.895 1.734 2.726.823.742 1.734 1.322 2.726 1.815.992.411 2.065.581 3.137.581 2.226 0 4.29-.831 5.783-2.395.823-.831 1.403-1.734 1.815-2.726.412-.992.662-2.065.662-3.137 0-.5-.081-1.073-.169-1.654-.083-.492-.245-.992-.495-1.484zM296.629 331.315c-.169-.5-.411-.992-.742-1.492-.33-.411-.662-.823-.992-1.234-2.314-2.234-5.944-2.976-9-1.734-1.073.411-1.903.992-2.726 1.734-.33.411-.662.823-.992 1.234-.33.5-.581.992-.742 1.492-.25.492-.411.992-.5 1.484-.08.58-.16 1.152-.16 1.653 0 1.073.161 2.145.573 3.137.5.992 1.081 1.895 1.823 2.726 1.565 1.565 3.629 2.395 5.863 2.395 1.073 0 2.145-.169 3.137-.581.992-.492 1.895-1.073 2.726-1.815.742-.831 1.322-1.734 1.734-2.726.412-.992.662-2.065.662-3.137 0-.5-.081-1.073-.169-1.654-.083-.49-.245-.99-.495-1.482zM343.202 327.597c-.492-.33-.992-.581-1.484-.742-.5-.25-.992-.411-1.484-.5-1.654-.33-3.306-.161-4.791.5-1.073.411-1.904.992-2.726 1.734-1.492 1.565-2.395 3.629-2.395 5.863 0 1.073.161 2.145.573 3.137.5.992 1.081 1.895 1.823 2.726 1.565 1.565 3.629 2.395 5.863 2.395 1.073 0 2.145-.169 3.137-.581 1.073-.492 1.895-1.073 2.726-1.815.742-.831 1.322-1.734 1.734-2.726.412-.992.662-2.065.662-3.137 0-2.234-.911-4.298-2.395-5.863-.412-.329-.831-.741-1.243-.991zM395.726 331.315c-.169-.5-.411-.992-.742-1.492-.33-.411-.662-.823-.992-1.234-.411-.33-.831-.742-1.322-.992-.411-.33-.911-.581-1.403-.742-.5-.25-.992-.411-1.572-.5-2.637-.492-5.532.33-7.427 2.234-1.492 1.565-2.395 3.629-2.395 5.863 0 1.073.25 2.145.662 3.137.412.992.992 1.895 1.734 2.726 1.565 1.565 3.629 2.395 5.863 2.395 1.073 0 2.145-.169 3.137-.581.992-.492 1.895-1.073 2.726-1.815.742-.831 1.322-1.734 1.815-2.726.411-.992.581-2.065.581-3.137 0-.5-.081-1.073-.169-1.654-.085-.49-.246-.99-.496-1.482zM440.815 326.855c-3.057-1.242-6.693-.5-9 1.734-.33.411-.742.823-.992 1.234-.33.5-.581.992-.742 1.492-.25.492-.411.992-.5 1.484-.081.581-.161 1.153-.161 1.654 0 1.073.25 2.145.662 3.137.412.992.992 1.895 1.734 2.726.823.742 1.734 1.322 2.726 1.815.992.411 2.065.581 3.137.581 2.226 0 4.29-.831 5.863-2.395.742-.831 1.322-1.734 1.734-2.726.412-.992.662-2.065.662-3.137 0-2.234-.911-4.298-2.395-5.863-.832-.744-1.655-1.324-2.728-1.736zM159.298 295.557c-1.492 1.565-2.395 3.629-2.395 5.863 0 1.073.25 2.145.662 3.137.412.992.992 1.895 1.734 2.726 1.565 1.565 3.629 2.395 5.863 2.395 1.073 0 2.145-.25 3.137-.662.992-.412 1.895-.992 2.646-1.734.823-.831 1.403-1.734 1.815-2.726.412-.992.662-2.065.662-3.137 0-2.145-.911-4.298-2.475-5.863-2.979-3.056-8.592-3.056-11.649.001zM120.153 294.565c-.411-.33-.911-.58-1.403-.742-.5-.25-.992-.411-1.572-.5-2.637-.573-5.532.33-7.427 2.234-1.492 1.565-2.395 3.718-2.395 5.863 0 1.073.161 2.145.573 3.137.5.992 1.081 1.895 1.823 2.726.823.742 1.734 1.322 2.726 1.734.992.411 2.065.662 3.137.662 2.226 0 4.29-.831 5.863-2.395.742-.831 1.322-1.734 1.815-2.726.411-.992.581-2.065.581-3.137 0-2.145-.911-4.298-2.395-5.863-.414-.332-.834-.743-1.326-.993zM208.847 295.557c-1.492 1.565-2.395 3.718-2.395 5.863 0 1.073.25 2.145.662 3.137.412.992.992 1.895 1.734 2.726.823.742 1.734 1.322 2.726 1.734.992.412 2.065.662 3.137.662 1.073 0 2.145-.25 3.137-.662.992-.412 1.895-.992 2.726-1.734.742-.831 1.322-1.734 1.734-2.726.412-.992.662-2.065.662-3.137 0-2.145-.911-4.298-2.395-5.863-3.058-3.057-8.672-3.057-11.728 0zM258.395 295.557c-1.492 1.565-2.395 3.718-2.395 5.863 0 1.073.161 2.145.573 3.137.5.992 1.081 1.895 1.823 2.726.823.742 1.734 1.322 2.726 1.734.992.412 2.065.662 3.137.662s2.145-.25 3.137-.662c.992-.412 1.895-.992 2.726-1.734.742-.831 1.322-1.734 1.734-2.726.412-.992.662-2.065.662-3.137 0-2.234-.911-4.298-2.395-5.863-3.059-3.057-8.671-3.057-11.728 0zM318.347 294.565c-.411-.33-.911-.58-1.403-.742-.5-.25-.992-.411-1.572-.5-2.637-.573-5.532.33-7.427 2.234-1.492 1.565-2.395 3.718-2.395 5.863 0 1.073.161 2.145.573 3.137.5.992 1.081 1.895 1.823 2.726 1.565 1.565 3.629 2.395 5.863 2.395 1.073 0 2.145-.25 3.137-.662.992-.412 1.895-.992 2.726-1.734.742-.831 1.322-1.734 1.734-2.726s.662-2.065.662-3.137c0-2.145-.911-4.298-2.395-5.863-.415-.33-.834-.741-1.326-.991zM366.493 293.823c-3.057-1.322-6.693-.581-9 1.734-1.492 1.565-2.395 3.718-2.395 5.863 0 1.073.25 2.145.662 3.137.412.992.992 1.895 1.734 2.726.823.742 1.734 1.322 2.726 1.734s2.065.662 3.137.662c2.226 0 4.29-.831 5.863-2.395.742-.831 1.322-1.734 1.734-2.726s.662-2.065.662-3.137c0-2.145-.911-4.298-2.395-5.863-.833-.743-1.736-1.324-2.728-1.735zM409.767 293.823c-1.073.411-1.984.992-2.726 1.734-1.492 1.565-2.395 3.718-2.395 5.863 0 1.073.161 2.145.662 3.137.411.992.992 1.895 1.734 2.726 1.565 1.565 3.629 2.395 5.863 2.395 1.073 0 2.145-.25 3.137-.662s1.895-.992 2.726-1.734c.742-.831 1.322-1.734 1.734-2.726s.662-2.065.662-3.137c0-2.145-.911-4.298-2.395-5.863-2.317-2.314-5.946-3.056-9.002-1.733zM466.992 294.565c-.411-.33-.911-.58-1.403-.742-.5-.25-.992-.411-1.572-.5-2.637-.573-5.532.33-7.427 2.234-1.492 1.565-2.395 3.718-2.395 5.863 0 1.073.161 2.145.573 3.137.5.992 1.081 1.895 1.823 2.726.823.742 1.734 1.322 2.726 1.734s2.061.661 3.135.661c2.226 0 4.29-.831 5.863-2.395.742-.831 1.322-1.734 1.734-2.726s.662-2.065.662-3.137c0-2.145-.911-4.298-2.395-5.863-.412-.331-.831-.742-1.324-.992z"/></g><g fill="#FFC878"><path d="M146.251 130.395c-3.137-3.057-8.669-3.057-11.725 0-.742.823-1.322 1.654-1.734 2.726-.5.992-.662 2.065-.662 3.137 0 2.226.823 4.29 2.395 5.863 1.565 1.565 3.629 2.395 5.863 2.395 1.073 0 2.145-.25 3.137-.662.992-.412 1.895-.992 2.726-1.734 1.565-1.572 2.395-3.637 2.395-5.863 0-1.073-.25-2.145-.662-3.137-.411-.991-.992-1.902-1.733-2.725zM195.798 130.395c-3.057-3.057-8.588-3.057-11.725 0-.742.823-1.322 1.734-1.734 2.726-.411.992-.662 2.065-.662 3.137 0 2.226.823 4.29 2.395 5.863.823.742 1.654 1.322 2.726 1.734.992.411 2.065.662 3.137.662 2.226 0 4.29-.831 5.863-2.395 1.565-1.572 2.395-3.637 2.395-5.863 0-1.073-.25-2.145-.662-3.137-.41-1.073-.991-1.904-1.733-2.727zM245.347 130.395c-.831-.742-1.734-1.322-2.726-1.734-3.057-1.322-6.693-.581-9 1.734-.742.823-1.322 1.734-1.823 2.726-.411.992-.573 2.065-.573 3.137 0 1.073.161 2.145.573 3.137.5.992 1.081 1.895 1.823 2.726.823.742 1.734 1.322 2.726 1.734.992.412 2.065.662 3.137.662 2.226 0 4.29-.831 5.863-2.395.742-.831 1.322-1.734 1.734-2.726.492-.992.662-2.065.662-3.137s-.169-2.145-.662-3.137c-.411-.993-.992-1.904-1.734-2.727zM294.895 130.395c-3.137-3.057-8.669-3.057-11.725 0-.742.823-1.322 1.654-1.734 2.726-.5.992-.662 2.065-.662 3.137 0 2.226.823 4.29 2.395 5.863 1.565 1.565 3.629 2.395 5.863 2.395 1.073 0 2.145-.25 3.137-.662.992-.412 1.895-.992 2.726-1.734 1.565-1.572 2.395-3.637 2.395-5.863 0-1.073-.25-2.145-.662-3.137-.41-.991-.991-1.902-1.733-2.725zM344.444 130.395c-3.057-3.057-8.588-3.057-11.725 0-.742.823-1.322 1.734-1.734 2.726-.411.992-.662 2.065-.662 3.137 0 2.226.823 4.29 2.395 5.863.823.742 1.654 1.322 2.726 1.734.992.411 2.065.662 3.137.662 2.226 0 4.29-.831 5.863-2.395 1.565-1.572 2.395-3.637 2.395-5.863 0-1.073-.25-2.145-.662-3.137-.41-1.073-.991-1.904-1.733-2.727zM393.992 130.395c-.831-.742-1.734-1.322-2.726-1.734-3.057-1.322-6.693-.581-9 1.734-.742.823-1.322 1.654-1.734 2.726-.5.992-.662 2.065-.662 3.137 0 1.073.161 2.145.662 3.137.411.992.992 1.895 1.734 2.726.823.742 1.734 1.322 2.726 1.734.992.412 2.065.662 3.137.662 2.226 0 4.29-.831 5.863-2.395.742-.831 1.322-1.734 1.734-2.726.492-.992.662-2.065.662-3.137s-.169-2.145-.662-3.137c-.411-1.073-.992-1.904-1.734-2.727zM293.653 63.338c-.492-.33-.992-.581-1.484-.742-.5-.25-.992-.411-1.484-.5-2.726-.573-5.621.33-7.516 2.234-1.491 1.565-2.394 3.718-2.394 5.863 0 1.073.25 2.145.662 3.137.411.992.992 1.895 1.734 2.726.823.742 1.654 1.322 2.726 1.734.992.411 2.065.662 3.137.662 2.226 0 4.29-.831 5.863-2.395.742-.831 1.322-1.734 1.734-2.726.411-.992.662-2.065.662-3.137 0-2.145-.911-4.298-2.395-5.863-.414-.331-.833-.742-1.245-.993zM244.105 63.338c-.492-.33-.992-.581-1.484-.742-.5-.25-.992-.411-1.484-.5-2.726-.573-5.621.33-7.516 2.234-1.491 1.565-2.394 3.718-2.394 5.863 0 1.073.161 2.145.573 3.137.5.992 1.081 1.895 1.823 2.726.823.742 1.734 1.322 2.726 1.734s2.063.661 3.136.661 2.145-.25 3.137-.662c1.073-.411 1.895-.992 2.726-1.734.742-.831 1.322-1.734 1.734-2.726.411-.992.662-2.065.662-3.137 0-2.145-.911-4.298-2.395-5.863-.413-.329-.832-.74-1.244-.991zM343.202 63.338c-.492-.33-.992-.581-1.484-.742-.5-.25-.992-.411-1.484-.5-2.726-.573-5.621.33-7.516 2.234-1.491 1.565-2.394 3.718-2.394 5.863 0 1.073.25 2.145.662 3.137.411.992.992 1.895 1.734 2.726.823.742 1.654 1.322 2.726 1.734.992.411 2.065.662 3.137.662 2.226 0 4.29-.831 5.863-2.395.742-.831 1.322-1.734 1.734-2.726.411-.992.662-2.065.662-3.137 0-2.145-.911-4.298-2.395-5.863-.414-.331-.833-.742-1.245-.993zM171.025 97.363c-.411-.33-.831-.742-1.242-.992-.492-.33-.992-.581-1.484-.742-.5-.25-.992-.411-1.484-.5-2.726-.573-5.621.33-7.516 2.234-.742.823-1.322 1.654-1.734 2.726-.5.992-.662 2.065-.662 3.137 0 2.226.823 4.29 2.395 5.863.823.742 1.734 1.322 2.726 1.815.992.411 2.065.581 3.137.581 2.226 0 4.29-.831 5.863-2.395 1.565-1.572 2.395-3.637 2.395-5.863 0-1.073-.25-2.145-.662-3.137-.41-1.074-.991-1.905-1.732-2.727zM213.056 95.129c-.492.089-.992.25-1.484.5-.5.161-.992.411-1.492.742-.411.25-.823.662-1.234.992-.742.823-1.322 1.654-1.734 2.726-.411.992-.662 2.065-.662 3.137 0 2.226.823 4.29 2.395 5.863 1.565 1.565 3.629 2.395 5.863 2.395 1.073 0 2.145-.169 3.137-.581.992-.492 1.895-1.073 2.726-1.815 1.565-1.572 2.395-3.637 2.395-5.863 0-2.145-.911-4.298-2.395-5.863-1.901-1.903-4.788-2.806-7.515-2.233zM270.121 97.363c-.411-.33-.831-.742-1.322-.992-.411-.33-.911-.581-1.403-.742-.5-.25-.992-.411-1.572-.5-2.637-.573-5.532.33-7.427 2.234-.742.823-1.322 1.734-1.734 2.726-.412.992-.662 2.065-.662 3.137 0 2.226.823 4.29 2.395 5.863 1.565 1.565 3.629 2.395 5.863 2.395 2.226 0 4.29-.831 5.863-2.395 1.565-1.572 2.395-3.637 2.395-5.863 0-1.073-.25-2.145-.662-3.137-.411-1.073-.992-1.904-1.734-2.726zM319.669 97.363c-2.314-2.314-5.944-3.057-9-1.734-1.073.411-1.903.992-2.726 1.734-.742.823-1.322 1.654-1.734 2.726-.5.992-.662 2.065-.662 3.137 0 2.145.823 4.29 2.395 5.863 1.565 1.565 3.629 2.395 5.863 2.395 2.226 0 4.29-.831 5.863-2.395 1.565-1.572 2.395-3.637 2.395-5.863 0-1.073-.25-2.145-.662-3.137-.408-1.073-.99-1.904-1.732-2.726zM138.734 194.226c-.492.089-.992.25-1.484.5-.5.161-.992.411-1.492.742-.411.33-.823.662-1.234.992-1.492 1.565-2.395 3.718-2.395 5.863 0 2.226.823 4.29 2.395 5.863 1.565 1.565 3.629 2.395 5.863 2.395 1.073 0 2.145-.25 3.137-.662.992-.412 1.895-.992 2.726-1.734.742-.831 1.322-1.734 1.734-2.726.492-.992.662-2.065.662-3.137 0-2.145-.911-4.298-2.395-5.863-1.904-1.903-4.791-2.806-7.517-2.233zM95.379 195.468c-.411-.33-.911-.581-1.403-.742-.5-.25-.992-.411-1.484-.5-1.654-.33-3.306-.161-4.791.5-1.073.411-1.903.992-2.726 1.734-1.491 1.565-2.394 3.718-2.394 5.863 0 2.226.823 4.29 2.395 5.863.823.742 1.734 1.322 2.726 1.734.992.412 2.065.661 3.137.661 1.073 0 2.145-.25 3.137-.662.992-.412 1.895-.992 2.646-1.734 1.644-1.572 2.475-3.637 2.475-5.862 0-2.145-.911-4.298-2.475-5.863-.332-.331-.751-.662-1.243-.992z"/></g><g fill="#FFD77D"><path d="M194.476 195.468c-.411-.33-.911-.581-1.403-.742-.5-.25-.992-.411-1.484-.5-1.654-.33-3.306-.161-4.791.5-1.073.411-1.903.992-2.726 1.734-1.492 1.565-2.395 3.718-2.395 5.863 0 2.226.823 4.29 2.395 5.863.823.742 1.734 1.322 2.726 1.734.992.412 2.065.662 3.137.662 1.073 0 2.145-.25 3.137-.662.992-.411 1.895-.992 2.645-1.734 1.645-1.572 2.475-3.637 2.475-5.863 0-2.145-.911-4.298-2.475-5.863-.33-.331-.749-.662-1.241-.992zM237.831 194.226c-.492.089-.992.25-1.484.5-.5.161-.992.411-1.492.742-.411.33-.823.662-1.234.992-1.492 1.565-2.395 3.718-2.395 5.863 0 2.226.823 4.29 2.395 5.863 1.565 1.565 3.629 2.395 5.863 2.395 1.073 0 2.145-.25 3.137-.662.992-.412 1.895-.992 2.726-1.734.742-.831 1.322-1.734 1.734-2.726.492-.992.662-2.065.662-3.137 0-2.145-.911-4.298-2.395-5.863-1.904-1.903-4.791-2.806-7.517-2.233zM293.573 195.468c-.411-.33-.911-.581-1.403-.742-.5-.25-.992-.411-1.484-.5-1.654-.33-3.306-.161-4.791.5-1.073.411-1.903.992-2.726 1.734-1.492 1.565-2.395 3.718-2.395 5.863 0 2.226.823 4.29 2.395 5.863.823.742 1.734 1.322 2.726 1.734.992.412 2.065.662 3.137.662 1.073 0 2.145-.25 3.137-.662.992-.412 1.895-.992 2.645-1.734 1.645-1.572 2.475-3.637 2.475-5.863 0-2.145-.911-4.298-2.475-5.863-.33-.331-.749-.662-1.241-.992zM336.928 194.226c-.492.089-.992.25-1.484.5-.5.161-.992.411-1.492.742-.411.33-.823.662-1.234.992-1.492 1.565-2.395 3.718-2.395 5.863 0 2.226.823 4.29 2.395 5.863 1.565 1.565 3.629 2.395 5.863 2.395 1.073 0 2.145-.25 3.137-.662.992-.412 1.895-.992 2.726-1.734.742-.831 1.322-1.734 1.734-2.726.492-.992.662-2.065.662-3.137 0-2.145-.911-4.298-2.395-5.863-1.904-1.903-4.791-2.806-7.517-2.233zM392.67 195.468c-.411-.33-.911-.581-1.403-.742-.5-.25-.992-.411-1.484-.5-1.654-.33-3.306-.161-4.791.5-1.073.411-1.904.992-2.726 1.734-1.492 1.565-2.395 3.718-2.395 5.863 0 2.226.823 4.29 2.395 5.863.823.742 1.734 1.322 2.726 1.734.992.412 2.065.662 3.137.662s2.145-.25 3.137-.662c.992-.412 1.895-.992 2.646-1.734 1.645-1.572 2.475-3.637 2.475-5.863 0-2.145-.911-4.298-2.475-5.863-.331-.331-.75-.662-1.242-.992z"/></g><g fill="#FFC878"><path d="M168.299 161.693c-1.984-.911-4.298-.831-6.274 0-1.073.411-1.903.992-2.726 1.734-1.492 1.565-2.395 3.629-2.395 5.863 0 2.226.823 4.29 2.395 5.863 1.565 1.565 3.629 2.395 5.863 2.395 2.226 0 4.29-.831 5.863-2.395 1.565-1.572 2.395-3.637 2.395-5.863 0-2.145-.911-4.298-2.395-5.863-.831-.742-1.654-1.322-2.726-1.734zM109.75 163.427c-1.492 1.565-2.395 3.718-2.395 5.863 0 2.226.823 4.29 2.395 5.863 1.565 1.565 3.629 2.395 5.863 2.395 2.226 0 4.29-.831 5.863-2.395 1.565-1.572 2.395-3.637 2.395-5.863 0-2.145-.911-4.298-2.395-5.863-3.056-3.056-8.67-3.056-11.726 0z"/></g><g fill="#FFD77D"><path d="M219.25 162.435c-.411-.33-.911-.581-1.403-.742-.5-.25-.992-.411-1.572-.5-.992-.242-2.145-.242-3.218 0-.492.089-.992.25-1.484.5-.5.161-.992.411-1.492.742-.411.33-.823.662-1.234.992-1.492 1.565-2.395 3.718-2.395 5.863 0 2.226.823 4.29 2.395 5.863 1.565 1.565 3.629 2.395 5.863 2.395 2.226 0 4.29-.831 5.863-2.395 1.565-1.572 2.395-3.637 2.395-5.863 0-2.145-.911-4.298-2.395-5.863-.412-.33-.831-.66-1.323-.992zM267.396 161.693c-2.065-.911-4.298-.831-6.274 0-1.073.411-1.903.992-2.726 1.734-1.492 1.565-2.395 3.718-2.395 5.863 0 2.226.823 4.29 2.395 5.863 1.565 1.565 3.629 2.395 5.863 2.395 2.226 0 4.29-.831 5.863-2.395 1.565-1.572 2.395-3.637 2.395-5.863 0-2.234-.911-4.298-2.395-5.863-.831-.742-1.734-1.322-2.726-1.734zM307.944 163.427c-1.492 1.565-2.395 3.718-2.395 5.863 0 2.226.823 4.29 2.395 5.863 1.565 1.565 3.629 2.395 5.863 2.395 2.226 0 4.29-.831 5.863-2.395 1.565-1.572 2.395-3.637 2.395-5.863 0-2.145-.911-4.298-2.395-5.863-3.057-3.056-8.67-3.056-11.726 0zM357.492 163.427c-1.492 1.565-2.395 3.718-2.395 5.863 0 2.226.823 4.29 2.395 5.863.823.742 1.734 1.322 2.726 1.734.992.412 2.065.662 3.137.662 1.073 0 2.145-.25 3.137-.662.992-.412 1.895-.992 2.726-1.734 1.565-1.572 2.395-3.637 2.395-5.863 0-2.145-.911-4.298-2.395-5.863-3.057-3.056-8.669-3.056-11.726 0z"/></g><path d="M409.767 161.693c-1.073.411-1.984.992-2.726 1.734-1.572 1.565-2.395 3.718-2.395 5.863 0 1.073.161 2.145.573 3.137.5.992 1.081 1.895 1.823 2.726 1.565 1.565 3.629 2.395 5.863 2.395 1.073 0 2.145-.25 3.137-.662.992-.412 1.895-.992 2.726-1.734 1.565-1.572 2.395-3.718 2.395-5.863 0-2.145-.911-4.298-2.395-5.863-2.316-2.313-6.033-2.975-9.001-1.733z" fill="#FFC878"/><g fill="#FFD77D"><path d="M145.008 393.662c-.492-.33-.992-.581-1.484-.742-.5-.25-.992-.411-1.572-.5-2.637-.573-5.532.33-7.427 2.234-1.492 1.565-2.395 3.718-2.395 5.863 0 1.073.25 2.145.662 3.137.412.992.992 1.895 1.734 2.726 1.565 1.565 3.629 2.395 5.863 2.395 1.073 0 2.145-.169 3.137-.581.992-.492 1.895-1.073 2.726-1.815.742-.831 1.322-1.734 1.734-2.726.412-.992.662-2.065.662-3.137 0-2.145-.911-4.298-2.395-5.863-.414-.33-.833-.661-1.245-.991zM194.556 393.662c-.492-.33-.992-.581-1.483-.742-.5-.25-.992-.411-1.572-.5-2.637-.573-5.532.33-7.427 2.234-1.492 1.565-2.395 3.718-2.395 5.863 0 1.073.25 2.145.662 3.137s.992 1.895 1.734 2.726c1.565 1.565 3.629 2.395 5.863 2.395 1.073 0 2.145-.169 3.137-.581.992-.492 1.895-1.073 2.726-1.815.742-.831 1.322-1.734 1.734-2.726.412-.992.662-2.065.662-3.137 0-2.145-.911-4.298-2.395-5.863-.415-.33-.834-.661-1.246-.991zM244.105 393.662c-.492-.33-.992-.581-1.484-.742-.5-.25-.992-.411-1.572-.5-2.637-.573-5.532.33-7.427 2.234-1.492 1.565-2.395 3.718-2.395 5.863 0 1.073.25 2.145.662 3.137.412.992.992 1.895 1.734 2.726.823.742 1.734 1.322 2.726 1.815.992.411 2.065.581 3.137.581 2.226 0 4.29-.831 5.863-2.395.742-.831 1.322-1.734 1.734-2.726.412-.992.662-2.065.662-3.137 0-2.145-.911-4.298-2.395-5.863-.414-.332-.833-.663-1.245-.993zM294.895 394.654c-.411-.33-.831-.662-1.322-.992-.411-.33-.911-.581-1.403-.742-.5-.25-.992-.411-1.572-.5-2.637-.573-5.532.33-7.427 2.234-1.492 1.565-2.395 3.718-2.395 5.863 0 1.073.161 2.145.662 3.137.411.992.992 1.895 1.734 2.726.823.742 1.734 1.322 2.726 1.815.992.411 2.065.581 3.137.581 1.073 0 2.145-.169 3.137-.581.992-.492 1.895-1.073 2.726-1.815.742-.831 1.322-1.734 1.734-2.726.412-.992.662-2.065.662-3.137 0-1.073-.25-2.145-.662-3.137-.414-1.074-.995-1.904-1.737-2.726zM341.718 392.92c-1.484-.662-3.137-.831-4.791-.5-.492.089-.992.25-1.484.5-.5.161-.992.411-1.492.742-.411.33-.823.662-1.234.992-1.492 1.565-2.395 3.718-2.395 5.863 0 1.073.161 2.145.573 3.137.5.992 1.081 1.895 1.823 2.726.823.742 1.734 1.322 2.726 1.815.992.411 2.065.581 3.137.581 1.073 0 2.145-.169 3.137-.581.992-.492 1.895-1.073 2.726-1.815.742-.831 1.322-1.734 1.734-2.726.412-.992.662-2.065.662-3.137 0-2.234-.911-4.298-2.395-5.863-.831-.742-1.735-1.323-2.727-1.734zM393.992 394.654c-.831-.742-1.734-1.322-2.726-1.734-1.984-.831-4.298-.911-6.274 0-1.073.411-1.904.992-2.726 1.734-1.492 1.565-2.395 3.718-2.395 5.863 0 1.073.161 2.145.573 3.137.419.992 1.081 1.895 1.823 2.726.823.742 1.734 1.322 2.726 1.815.992.411 2.065.581 3.137.581s2.145-.169 3.137-.581c.992-.492 1.895-1.073 2.726-1.815 1.484-1.572 2.395-3.637 2.395-5.863 0-1.073-.25-2.145-.662-3.137-.411-1.074-.992-1.904-1.734-2.726zM440.815 392.92c-3.057-1.322-6.693-.581-9 1.734-1.492 1.565-2.395 3.629-2.395 5.863 0 1.073.161 2.145.573 3.137.5.992 1.081 1.895 1.823 2.726.823.742 1.734 1.322 2.726 1.815.992.411 2.065.581 3.137.581s2.145-.169 3.137-.581c.992-.492 1.895-1.073 2.726-1.815.742-.831 1.322-1.734 1.734-2.726.492-.992.662-2.065.662-3.137 0-2.145-.911-4.298-2.395-5.863-.832-.742-1.736-1.323-2.728-1.734zM170.943 361.621c-2.976-3.057-8.588-3.057-11.645 0-.742.823-1.322 1.654-1.734 2.726-.5.992-.662 2.065-.662 3.137s.161 2.145.573 3.137c.5.992 1.081 1.895 1.823 2.726.823.742 1.734 1.322 2.726 1.734.992.411 2.065.662 3.137.662 1.073 0 2.145-.25 3.137-.662.992-.412 1.895-.992 2.646-1.734.823-.831 1.403-1.734 1.815-2.726s.662-2.065.662-3.137-.25-2.145-.662-3.137c-.412-1.072-.993-1.903-1.816-2.726zM121.476 361.621c-1.984-1.903-4.791-2.807-7.516-2.234-.492.089-.992.25-1.484.5-.5.161-.992.411-1.492.742-.411.25-.823.662-1.234.992-.742.823-1.322 1.734-1.734 2.726-.5.992-.662 2.065-.662 3.137s.161 2.145.573 3.137c.5.992 1.081 1.895 1.823 2.726.823.742 1.734 1.322 2.726 1.734.992.411 2.065.662 3.137.662 1.073 0 2.145-.25 3.137-.662.992-.412 1.895-.992 2.726-1.734.742-.831 1.322-1.734 1.734-2.726s.662-2.065.662-3.137-.25-2.145-.662-3.137c-.411-1.072-.992-1.903-1.734-2.726zM220.572 361.621c-.831-.742-1.734-1.322-2.726-1.734-3.057-1.322-6.693-.581-9 1.734-.742.823-1.322 1.654-1.734 2.726-.5.992-.662 2.065-.662 3.137s.161 2.145.573 3.137c.5.992 1.081 1.895 1.823 2.726.823.742 1.734 1.322 2.726 1.734.992.412 2.065.662 3.137.662s2.145-.25 3.137-.662c.992-.412 1.895-.992 2.726-1.734.742-.831 1.322-1.734 1.734-2.726.412-.992.662-2.065.662-3.137s-.25-2.145-.662-3.137c-.411-.991-.991-1.903-1.734-2.726zM270.121 361.621c-.411-.33-.831-.742-1.242-.992-.492-.33-.992-.581-1.484-.742-.5-.25-.992-.411-1.484-.5-1.654-.33-3.306-.161-4.791.5-1.073.411-1.903.992-2.726 1.734-.742.823-1.322 1.654-1.734 2.726-.5.992-.662 2.065-.662 3.137s.161 2.145.573 3.137c.419.992 1.081 1.895 1.823 2.726 1.565 1.565 3.629 2.395 5.863 2.395 1.073 0 2.145-.25 3.137-.662.992-.412 1.895-.992 2.726-1.734.742-.831 1.322-1.734 1.734-2.726s.662-2.065.662-3.137-.25-2.145-.662-3.137c-.41-1.071-.991-1.902-1.733-2.725zM319.669 361.621c-.411-.33-.831-.742-1.242-.992-.492-.33-.992-.581-1.484-.742-.5-.25-.992-.411-1.572-.5-.992-.242-2.065-.242-3.218 0-.492.089-.992.25-1.484.5-.5.161-.992.411-1.492.742-.411.25-.823.662-1.234.992-.742.823-1.322 1.654-1.734 2.726-.411.992-.662 2.065-.662 3.137s.25 2.145.662 3.137c.412.992.992 1.895 1.734 2.726.823.742 1.734 1.322 2.726 1.734.992.412 2.065.662 3.137.662s2.145-.25 3.137-.662c.992-.412 1.895-.992 2.726-1.734.742-.831 1.322-1.734 1.734-2.726s.662-2.065.662-3.137-.25-2.145-.662-3.137c-.41-.991-.992-1.903-1.734-2.726zM369.218 361.621c-.411-.33-.831-.742-1.322-.992-.411-.33-.911-.581-1.403-.742-3.057-1.322-6.693-.5-9 1.734-.742.823-1.322 1.654-1.734 2.726-.411.992-.662 2.065-.662 3.137s.25 2.145.662 3.137c.412.992.992 1.895 1.734 2.726 1.565 1.565 3.629 2.395 5.863 2.395 1.073 0 2.145-.25 3.137-.662.992-.412 1.895-.992 2.726-1.734.742-.831 1.322-1.734 1.734-2.726s.662-2.065.662-3.137-.25-2.145-.662-3.137c-.412-1.071-.993-1.902-1.735-2.725zM418.766 361.621c-.831-.742-1.734-1.322-2.726-1.734-3.057-1.322-6.693-.5-9 1.734-.742.823-1.322 1.654-1.734 2.726-.411.992-.662 2.065-.662 3.137s.25 2.145.662 3.137c.412.992.992 1.895 1.734 2.726.823.742 1.734 1.322 2.726 1.734.992.412 2.065.662 3.137.662 1.073 0 2.145-.25 3.137-.662.992-.412 1.895-.992 2.726-1.734.742-.831 1.322-1.734 1.815-2.726.411-.992.581-2.065.581-3.137s-.169-2.145-.662-3.137c-.41-1.072-.992-1.903-1.734-2.726zM245.347 460.718c-.411-.33-.831-.742-1.242-.992-.492-.33-.992-.581-1.484-.742-.5-.25-.992-.411-1.484-.5-1.161-.242-2.153-.242-3.306 0-.492.089-.992.25-1.484.5-.5.161-.992.411-1.492.742-.411.25-.823.662-1.234.992-.742.823-1.322 1.734-1.734 2.726-.5.992-.662 2.065-.662 3.137 0 2.226.823 4.29 2.395 5.783.823.823 1.734 1.403 2.726 1.815s2.065.662 3.137.662 2.145-.25 3.137-.662 1.895-.992 2.726-1.815c1.565-1.492 2.395-3.556 2.395-5.783 0-1.073-.25-2.145-.662-3.137-.412-.991-.99-1.903-1.732-2.726zM294.895 460.718c-1.984-1.904-4.791-2.807-7.516-2.234-.492.089-.992.25-1.484.5-.5.161-.992.411-1.492.742-.411.25-.823.662-1.234.992-.742.823-1.322 1.734-1.734 2.726-.5.992-.662 2.065-.662 3.137 0 2.226.823 4.29 2.395 5.783.823.823 1.734 1.403 2.726 1.815s2.065.662 3.137.662c1.073 0 2.145-.25 3.137-.662s1.895-.992 2.726-1.815c1.565-1.492 2.395-3.556 2.395-5.783 0-1.073-.25-2.145-.662-3.137-.411-.991-.99-1.903-1.732-2.726zM344.363 460.718c-3.057-3.057-8.588-3.057-11.645 0-.742.823-1.322 1.734-1.734 2.726-.5.992-.662 2.065-.662 3.137 0 2.226.823 4.29 2.395 5.783.823.823 1.734 1.403 2.726 1.815s2.065.662 3.137.662c2.226 0 4.29-.831 5.783-2.475 1.645-1.492 2.475-3.556 2.475-5.783 0-1.073-.25-2.145-.662-3.137-.409-1.075-.99-1.905-1.813-2.728zM170.943 427.686c-2.976-3.057-8.588-3.057-11.645 0-1.492 1.565-2.395 3.718-2.395 5.863 0 1.073.25 2.145.662 3.137s.992 1.895 1.734 2.726c.823.742 1.654 1.322 2.726 1.734.992.411 2.065.662 3.137.662 1.073 0 2.145-.25 3.137-.662.992-.412 1.895-.992 2.646-1.734.823-.831 1.403-1.734 1.815-2.726.412-.992.662-2.065.662-3.137 0-1.073-.25-2.145-.662-3.137-.413-1.073-.994-1.903-1.817-2.726zM220.492 427.686c-1.823-1.903-4.71-2.807-7.435-2.234-.492.089-.992.25-1.484.5-.5.161-.992.411-1.492.742-.411.25-.823.662-1.234.992-1.492 1.565-2.395 3.718-2.395 5.863 0 1.073.25 2.145.662 3.137.412.992.992 1.895 1.734 2.726 1.565 1.565 3.629 2.395 5.863 2.395 1.073 0 2.145-.25 3.137-.662.992-.412 1.895-.992 2.646-1.734.823-.831 1.403-1.734 1.815-2.726.412-.992.662-2.065.662-3.137 0-1.073-.25-2.145-.662-3.137-.413-1.072-.994-1.902-1.817-2.725zM270.04 427.686c-.75-.742-1.654-1.322-2.646-1.734-1.484-.662-3.137-.831-4.791-.5-.492.089-.992.25-1.484.5-.5.161-.992.411-1.492.742-.411.25-.823.662-1.234.992-1.492 1.565-2.395 3.718-2.395 5.863 0 1.073.25 2.145.662 3.137.412.992.992 1.895 1.734 2.726 1.565 1.565 3.629 2.395 5.863 2.395 1.073 0 2.145-.25 3.137-.662.992-.412 1.895-.992 2.646-1.734.823-.831 1.403-1.734 1.815-2.726s.662-2.065.662-3.137c0-1.073-.25-2.145-.662-3.137-.411-1.072-.992-1.902-1.815-2.725zM319.589 427.686c-.75-.742-1.654-1.322-2.646-1.734-1.484-.662-3.137-.831-4.791-.5-.492.089-.992.25-1.484.5-.5.161-.992.411-1.492.742-.411.25-.823.662-1.234.992-1.492 1.565-2.395 3.718-2.395 5.863 0 1.073.25 2.145.662 3.137.412.992.992 1.895 1.734 2.726 1.565 1.565 3.629 2.395 5.863 2.395 1.073 0 2.145-.25 3.137-.662.992-.412 1.895-.992 2.646-1.734.823-.831 1.403-1.734 1.815-2.726s.662-2.065.662-3.137c0-1.073-.25-2.145-.662-3.137-.411-1.072-.993-1.902-1.815-2.725zM366.493 425.952c-1.484-.662-3.137-.831-4.791-.5-.492.089-.992.25-1.484.5-.5.161-.992.411-1.492.742-.411.25-.823.662-1.234.992-1.492 1.565-2.395 3.718-2.395 5.863 0 1.073.25 2.145.662 3.137.412.992.992 1.895 1.734 2.726 1.565 1.565 3.629 2.395 5.863 2.395 1.073 0 2.145-.25 3.137-.662s1.895-.992 2.726-1.734c.742-.831 1.322-1.734 1.734-2.726s.662-2.065.662-3.137c0-2.145-.911-4.298-2.395-5.863-.832-.741-1.735-1.321-2.727-1.733z"/></g><circle cx="462.453" cy="169.291" r="16.516" fill="#464655"/><g fill="#FFD77D"><path d="M418.766 427.686c-3.137-3.137-8.669-3.057-11.725 0-1.492 1.565-2.395 3.718-2.395 5.863 0 1.073.25 2.145.662 3.137.412.992.992 1.895 1.734 2.726.55.55 1.225.889 1.884 1.254 4.042-3.012 7.939-6.2 11.755-9.482-.398-1.291-.988-2.521-1.915-3.498zM470.711 367.485c0-1.073-.25-2.145-.662-3.137-.411-1.073-.992-1.904-1.734-2.726-2.314-2.234-5.944-3.057-9-1.734-1.073.411-1.903.992-2.726 1.734-.742.823-1.322 1.734-1.734 2.726-.5.992-.662 2.065-.662 3.137s.161 2.145.573 3.137c.419.992 1.081 1.895 1.823 2.726.823.742 1.734 1.322 2.726 1.734.992.412 2.064.661 3.138.661 2.058 0 3.938-.782 5.46-2.128.822-1.459 1.644-2.917 2.433-4.397.137-.579.365-1.141.365-1.733z"/></g><path d="M412.904 111.484c3.719 0 6.745-2.505 7.779-5.885-3.819-3.287-7.784-6.403-11.83-9.418-2.47 1.428-4.208 3.988-4.208 7.045.001 4.561 3.697 8.258 8.259 8.258z" fill="#FFC878"/><g fill="#FFD77D"><path d="M481.364 328.589c-.33.411-.742.823-.992 1.234-.33.5-.58.992-.742 1.492-.25.492-.411.992-.5 1.484-.081.581-.161 1.153-.161 1.654 0 1.073.25 2.145.662 3.137.412.992.992 1.895 1.734 2.726.427.385.941.633 1.415.941 1.766-4.895 3.321-9.889 4.734-14.943-2.265-.068-4.535.71-6.15 2.275zM195.798 460.718c-.411-.33-.831-.742-1.242-.992-.492-.33-.992-.581-1.483-.742-.5-.25-.992-.411-1.484-.5-1.161-.242-2.153-.242-3.306 0-.492.089-.992.25-1.484.5-.5.161-.992.411-1.492.742-.248.151-.495.383-.743.597 4.461 2.241 8.992 4.359 13.624 6.291 0-.011.006-.021.006-.032 0-1.073-.25-2.145-.662-3.137-.413-.992-.992-1.904-1.734-2.727z"/></g><path d="M186.799 77.79c.992.411 2.065.662 3.137.662 1.073 0 2.145-.25 3.137-.662 1.073-.411 1.895-.992 2.726-1.734.742-.831 1.322-1.734 1.734-2.726.411-.992.662-2.065.662-3.137 0-.011-.006-.022-.006-.032-4.607 1.921-9.115 4.026-13.552 6.253.679.536 1.374 1.05 2.162 1.376z" fill="#FFC878"/></svg>