<svg xmlns="http://www.w3.org/2000/svg" viewBox="0 0 512 512"><path d="M468.032 315.621c-13.641 0-24.7 11.06-24.7 24.7 0 17.443-14.191 31.633-31.633 31.633-17.443 0-31.634-14.19-31.634-31.633V132.195c.002-68.521-55.544-124.067-124.064-124.067S131.935 63.674 131.935 132.195v208.126c0 17.443-14.191 31.633-31.634 31.633-17.442 0-31.633-14.19-31.633-31.633 0-13.64-11.059-24.7-24.7-24.7s-24.7 11.06-24.7 24.7c0 44.681 36.351 81.032 81.032 81.032s81.033-36.351 81.033-81.032V265.1H197.5v214.072c0 13.643 11.059 24.7 24.7 24.7s24.699-11.056 24.699-24.7V265.099H265.1v214.072c0 13.643 11.058 24.7 24.699 24.7s24.699-11.056 24.699-24.7V265.099h16.169v75.221c0 44.681 36.351 81.032 81.032 81.032s81.032-36.351 81.032-81.032c.001-13.639-11.057-24.699-24.699-24.699z" fill="#A3382A"/><g fill="#E97A6E"><circle cx="153.797" cy="200.072" r="30.697"/><circle cx="358.203" cy="200.072" r="30.697"/><circle cx="299.334" cy="68.808" r="14.3"/><circle cx="336.604" cy="68.808" r="9.099"/><circle cx="280.704" cy="37.184" r="9.1"/></g><path d="M468.032 307.492c-18.102 0-32.828 14.727-32.828 32.828 0 12.961-10.544 23.504-23.504 23.504-12.961 0-23.506-10.544-23.506-23.504V224.699c5.514-6.706 8.83-15.285 8.83-24.624 0-9.34-3.316-17.919-8.83-24.625v-43.256C388.195 59.303 328.893 0 256.001 0S123.807 59.303 123.807 132.195v43.256c-5.514 6.706-8.83 15.285-8.83 24.625 0 9.339 3.316 17.918 8.83 24.624v115.622c0 12.961-10.544 23.504-23.506 23.504-12.961 0-23.504-10.544-23.504-23.504 0-18.101-14.726-32.828-32.828-32.828s-32.828 14.727-32.828 32.828c0 49.163 39.997 89.16 89.16 89.16 23.706 0 45.74-9.322 62.043-26.251 16.089-16.707 24.95-39.049 24.95-62.911v-67.093h2.079v205.944c0 18.101 14.726 32.828 32.828 32.828 18.101 0 32.827-14.727 32.827-32.828V273.227h1.944v205.944c0 18.101 14.726 32.828 32.827 32.828s32.827-14.727 32.827-32.828V273.227h2.08v67.093c0 23.862 8.861 46.204 24.95 62.911 16.303 16.927 38.337 26.251 62.043 26.251 49.163 0 89.16-39.997 89.16-89.16.001-18.102-14.725-32.83-32.827-32.83zm-87.263-107.417c0 12.445-10.124 22.569-22.569 22.569-12.445 0-22.569-10.124-22.569-22.569s10.124-22.57 22.569-22.57c12.445 0 22.569 10.125 22.569 22.57zm-226.967-22.57c12.445 0 22.569 10.126 22.569 22.57s-10.124 22.569-22.569 22.569-22.569-10.124-22.569-22.569 10.124-22.57 22.569-22.57zM411.7 413.226c-39.665 0-70.737-32.024-70.737-72.904V265.1c0-4.49-3.639-8.128-8.128-8.128h-18.336c-4.489 0-8.128 3.638-8.128 8.128v214.072c0 9.138-7.434 16.572-16.571 16.572s-16.571-7.433-16.571-16.572V265.099c0-4.49-3.639-8.128-8.128-8.128H246.9c-4.489 0-8.128 3.638-8.128 8.128v214.072c0 9.138-7.433 16.572-16.571 16.572-9.138 0-16.572-7.433-16.572-16.572V265.099c0-4.49-3.639-8.128-8.128-8.128h-18.335c-4.489 0-8.128 3.638-8.128 8.128v75.221c0 40.881-31.071 72.904-70.738 72.904-40.2 0-72.904-32.706-72.904-72.904 0-9.138 7.433-16.572 16.572-16.572s16.572 7.434 16.572 16.572c0 21.923 17.836 39.761 39.761 39.761s39.762-17.836 39.762-39.761V236.382c4.274 1.622 8.902 2.519 13.739 2.519 21.408 0 38.825-17.417 38.825-38.825 0-21.41-17.417-38.827-38.825-38.827-4.836 0-9.464.896-13.739 2.519v-31.573c0-63.928 52.009-115.938 115.938-115.938s115.938 52.009 115.938 115.939v31.573c-4.274-1.622-8.902-2.519-13.739-2.519-21.408 0-38.826 17.417-38.826 38.827 0 21.408 17.417 38.825 38.826 38.825 4.836 0 9.464-.896 13.739-2.519v103.938c0 21.923 17.836 39.761 39.761 39.761 21.924 0 39.761-17.836 39.761-39.761 0-9.138 7.433-16.572 16.572-16.572s16.572 7.433 16.572 16.572c-.001 40.199-32.706 72.905-72.905 72.905zm-63.591-213.151c0 5.572 4.518 10.092 10.092 10.092 5.573 0 10.091-4.52 10.091-10.092 0-5.574-4.518-10.093-10.091-10.093-5.574 0-10.092 4.52-10.092 10.093zm-194.307 10.092c5.574 0 10.092-4.52 10.092-10.092 0-5.574-4.518-10.093-10.092-10.093-5.573 0-10.091 4.52-10.091 10.093 0 5.572 4.517 10.092 10.091 10.092z" fill="#1E252B"/><circle cx="52.476" cy="370.492" r="12.458" fill="#E97A6E"/><circle cx="52.476" cy="370.492" r="5.932" fill="#E94F3D"/><circle cx="81.077" cy="392.861" r="12.459" fill="#E97A6E"/><circle cx="81.077" cy="392.861" r="5.932" fill="#E94F3D"/><circle cx="119.474" cy="393.804" r="12.458" fill="#E97A6E"/><path d="M125.409 393.809c0-3.278-2.656-5.936-5.932-5.936s-5.932 2.656-5.932 5.936c0 3.274 2.656 5.934 5.932 5.934 3.277-.001 5.932-2.66 5.932-5.934z" fill="#E94F3D"/><circle cx="147.305" cy="369.994" r="12.459" fill="#E97A6E"/><path d="M153.235 369.999c0-3.279-2.656-5.936-5.932-5.936s-5.932 2.655-5.932 5.936c0 3.274 2.656 5.932 5.932 5.932s5.932-2.657 5.932-5.932z" fill="#E94F3D"/><circle cx="155.487" cy="325.202" r="12.458" fill="#E97A6E"/><circle cx="155.487" cy="325.202" r="5.932" fill="#E94F3D"/><circle cx="459.751" cy="370.492" r="12.458" fill="#E97A6E"/><circle cx="459.751" cy="370.492" r="5.932" fill="#E94F3D"/><circle cx="431.151" cy="392.861" r="12.459" fill="#E97A6E"/><circle cx="431.151" cy="392.861" r="5.932" fill="#E94F3D"/><circle cx="392.753" cy="393.804" r="12.458" fill="#E97A6E"/><path d="M386.817 393.809c0-3.278 2.656-5.936 5.932-5.936 3.276 0 5.932 2.656 5.932 5.936 0 3.274-2.656 5.934-5.932 5.934-3.276-.001-5.932-2.66-5.932-5.934z" fill="#E94F3D"/><circle cx="364.923" cy="369.994" r="12.459" fill="#E97A6E"/><path d="M358.991 369.999c0-3.279 2.656-5.936 5.932-5.936 3.276 0 5.932 2.655 5.932 5.936 0 3.274-2.656 5.932-5.932 5.932-3.275 0-5.932-2.657-5.932-5.932z" fill="#E94F3D"/><circle cx="356.74" cy="325.202" r="12.458" fill="#E97A6E"/><circle cx="356.74" cy="325.202" r="5.932" fill="#E94F3D"/><circle cx="222.203" cy="325.776" r="12.458" fill="#E97A6E"/><circle cx="222.203" cy="325.776" r="5.932" fill="#E94F3D"/><circle cx="222.203" cy="374.307" r="12.458" fill="#E97A6E"/><path d="M228.134 374.309c0-3.278-2.656-5.936-5.932-5.936-3.277 0-5.932 2.656-5.932 5.936 0 3.274 2.655 5.934 5.932 5.934 3.276-.001 5.932-2.66 5.932-5.934z" fill="#E94F3D"/><circle cx="222.203" cy="422.837" r="12.458" fill="#E97A6E"/><circle cx="222.203" cy="422.837" r="5.932" fill="#E94F3D"/><circle cx="222.203" cy="471.379" r="12.458" fill="#E97A6E"/><circle cx="222.203" cy="471.379" r="5.932" fill="#E94F3D"/><circle cx="289.797" cy="325.776" r="12.458" fill="#E97A6E"/><circle cx="289.797" cy="325.776" r="5.932" fill="#E94F3D"/><circle cx="289.797" cy="374.307" r="12.458" fill="#E97A6E"/><path d="M283.867 374.309c0-3.278 2.656-5.936 5.932-5.936 3.277 0 5.932 2.656 5.932 5.936 0 3.274-2.655 5.934-5.932 5.934-3.276-.001-5.932-2.66-5.932-5.934z" fill="#E94F3D"/><circle cx="289.797" cy="422.837" r="12.458" fill="#E97A6E"/><circle cx="289.797" cy="422.837" r="5.932" fill="#E94F3D"/><circle cx="289.797" cy="471.379" r="12.458" fill="#E97A6E"/><circle cx="289.797" cy="471.379" r="5.932" fill="#E94F3D"/></svg>