<svg xmlns="http://www.w3.org/2000/svg" viewBox="0 0 422.245 422.245"><path fill="#F9993A" d="M362.313 256.502c-6.881.126-12.265 6.03-12.265 12.913v13.484c0 16.304-12.759 30.103-29.056 30.587-16.934.503-30.87-13.127-30.87-29.949V79c0-43.63-35.369-79-79-79-43.63 0-79 35.369-79 79v203.9c0 16.304-12.759 30.103-29.056 30.587-16.934.503-30.87-13.126-30.87-29.949v-14.122c0-6.882-5.384-12.786-12.265-12.913-7.011-.129-12.735 5.516-12.735 12.498v13.702c0 30.162 23.951 55.331 54.109 55.791 30.696.469 55.817-24.365 55.817-54.956V213.75c0-5.937 4.813-10.75 10.75-10.75s10.75 4.813 10.75 10.75v152.911c0 16.611-13.25 30.528-29.861 30.584-16.513.055-29.975-13.317-30.065-29.797-.037-6.855-5.574-12.628-12.43-12.666-6.936-.038-12.571 5.573-12.571 12.5 0 30.591 25.121 55.425 55.817 54.956 30.158-.46 54.109-25.629 54.109-55.791V210.5c0-4.142 3.358-7.5 7.5-7.5 4.142 0 7.5 3.358 7.5 7.5v155.898c0 30.333 24.2 55.611 54.532 55.845 30.365.234 55.168-24.288 55.392-54.548.049-6.626-4.962-12.402-11.571-12.879-7.323-.528-13.428 5.256-13.428 12.466 0 16.823-13.936 30.452-30.87 29.949-16.297-.484-29.056-14.283-29.056-30.587V213.75c0-5.937 4.813-10.75 10.75-10.75s10.75 4.813 10.75 10.75v68.953c0 30.162 23.951 55.331 54.109 55.791 30.696.468 55.817-24.366 55.817-54.956V269c.002-6.981-5.722-12.626-12.733-12.498z"/><circle cx="260.119" cy="140" r="39.769" fill="#E2822B"/><circle cx="260.119" cy="140" r="25" fill="#FFF"/><path fill="#4D4D4D" d="M260.119 155c-3.038 0-5.5-2.462-5.5-5.5v-19c0-3.038 2.462-5.5 5.5-5.5s5.5 2.462 5.5 5.5v19c0 3.038-2.462 5.5-5.5 5.5z"/><circle cx="159.622" cy="140" r="39.769" fill="#E2822B"/><circle cx="159.622" cy="140" r="25" fill="#FFF"/><path fill="#4D4D4D" d="M159.622 155c-3.038 0-5.5-2.462-5.5-5.5v-19c0-3.038 2.462-5.5 5.5-5.5s5.5 2.462 5.5 5.5v19c0 3.038-2.462 5.5-5.5 5.5z"/><circle cx="248.122" cy="42.5" r="10" fill="#E2822B"/><circle cx="157.122" cy="55.5" r="10" fill="#E2822B"/><circle cx="265.119" cy="61.5" r="5" fill="#E2822B"/><circle cx="169.122" cy="34.5" r="5" fill="#E2822B"/><circle cx="245.122" cy="67.5" r="5" fill="#E2822B"/></svg>
