<svg xmlns="http://www.w3.org/2000/svg" viewBox="0 0 512 512"><path fill="#EC5564" d="M398.656 351.383l-50 11.328-35.312 18.672-52.008 11.328-38 .672L160 382.055l-30.664-11.344-26.672-20-40-10L30 330.539H16.664l2.672 11.516 14 20.656 18 24.672 6 45.328L87.5 464.055l58.5 5.328 192-2.672 46-18.656 34-58.672v-43.328"/><path fill="#424953" d="M375 183.539l-15.5-50.937-21-37.063h-251l23 111.719-.5 123.281 39.336-10.5 95.992-9.5 114.172 14.5 6.5-30.5 14-56"/><path fill="#CBD0D8" d="M284.828 204.445c0 28.984-22.461 52.484-50.164 52.484s-50.164-23.5-50.164-52.484c0-29 22.461-52.5 50.164-52.5s50.164 23.5 50.164 52.5z"/><path d="M512 319.852c0-5.875-4.781-10.656-10.656-10.656-1.031 0-2.016.156-2.953.406l-.234.063-108.281 31.094-48.531 13.938s-19.813 26.703-96.008 29v-62.188c2.188-.031 4.383-.063 6.586-.063 41.5 0 76.359 6.359 103.594 18.891l10.266 4.734 4.125-10.531c.594-1.5 14.406-37.25 18.266-85.219 2.281-28.344.578-55.094-5.063-79.531-7.141-30.875-20.578-58.063-39.984-80.781l-3.203-3.75h-94.586V42.664c0-5.906-4.781-10.672-10.672-10.672S224 36.758 224 42.664v4.219c-5.336 2.094-15.844 4.109-30.289-3.156-31.406-15.781-68.219-.969-69.766-.328l.023.047c-3.891 1.594-6.633 5.422-6.633 9.875 0 5.906 4.773 10.672 10.664 10.672 1.695 0 3.297-.406 4.719-1.109 4.469-1.625 30.836-10.422 51.414-.094 10.961 5.516 20.719 7.391 28.938 7.391 4.031 0 7.68-.453 10.93-1.156v16.234H85.336l-15.172.016 5.133 14.266c.102.281 9.992 28.016 17.891 70.125 7.258 38.656 14.281 97.703 6.531 159.531l-1.18 9.406-87.844-29.406L0 351.852l24.281 11.625 4.211 18.031 13.195 9.719s-12.547 82.625 73.68 88.625h188.555s1.828.156 5.031.156c22.781 0 115.234-7.438 118.141-127.734l77.188-22.172c4.452-1.282 7.718-5.375 7.718-10.25zM99.969 106.602H330c29 36.094 41.438 83.313 36.953 140.438-2.375 30.313-9.172 55.813-13.391 69.344-28.141-10.797-62.25-16.25-101.641-16.25-54.438 0-104.969 10.297-129.375 16.172 5.273-58.953-1.5-114.016-8.477-151.047-4.85-25.736-10.335-46.064-14.1-58.657zm13.312 234.156c.578-.172 50.711-14.594 110.719-18.391v61.266c-77.648-3.219-113.516-41.031-113.516-41.031l-1.633-.563 4.43-1.281zM379 430.82c-10.188 10.828-23.344 18.656-39.125 23.313-13.406 3.953-25.125 4.531-30.922 4.531-1.906 0-3.094-.063-3.359-.063l-.703-.078h-188.75c-19.266-1.453-33.422-7.625-42.109-18.328-14.516-17.906-11.43-44.344-11.234-45.813l2.063-12.578-10.516-7.75-6.867-5.047-2.422-10.375-2.328-9.984-9.242-4.422-8.555-4.094.852-3.391L99.33 361.35c5.445 4.781 15.93 12.938 31.734 20.922 29.68 15 65.508 22.922 103.602 22.922 38.336 0 69.992-5.547 94.055-16.5 11.609-5.266 19.203-10.813 23.875-15.031l52.906-15.188c-1.768 31.252-10.643 55.533-26.502 72.345z"/><path d="M288 415.852c-5.891 0-10.656 4.781-10.656 10.672s4.766 10.672 10.656 10.672 10.656-4.781 10.656-10.672-4.765-10.672-10.656-10.672zM245.336 415.852c-5.891 0-10.672 4.781-10.672 10.672s4.781 10.672 10.672 10.672S256 432.414 256 426.523s-4.773-10.671-10.664-10.671zM202.664 415.852c-5.891 0-10.664 4.781-10.664 10.672s4.773 10.672 10.664 10.672 10.672-4.781 10.672-10.672-4.781-10.672-10.672-10.672zM160 415.852c-5.891 0-10.664 4.781-10.664 10.672s4.773 10.672 10.664 10.672 10.664-4.781 10.664-10.672-4.773-10.672-10.664-10.672zM192 244.289v26.969h85.344v-26.969c13.078-11.719 21.313-28.734 21.313-47.688 0-35.344-28.641-64-63.992-64-35.344 0-64 28.656-64 64-.001 18.954 8.241 35.969 21.335 47.688zm42.664-90.359c23.531 0 42.68 19.141 42.68 42.672 0 12.125-5.188 23.703-14.234 31.797l-7.11 6.359v15.172c0-5.891-4.773-10.672-10.664-10.672s-10.672 4.781-10.672 10.672c0-5.891-4.773-10.672-10.664-10.672s-10.664 4.781-10.664 10.672v-15.172l-7.109-6.359C197.188 220.305 192 208.727 192 196.602c0-23.532 19.141-42.672 42.664-42.672z"/><path d="M250.664 207.258c5.891 0 10.672-4.766 10.672-10.656s-4.781-10.672-10.672-10.672S240 190.711 240 196.602s4.773 10.656 10.664 10.656zM218.664 207.258c5.891 0 10.672-4.766 10.672-10.656s-4.781-10.672-10.672-10.672S208 190.711 208 196.602s4.773 10.656 10.664 10.656z"/></svg>
