<svg xmlns="http://www.w3.org/2000/svg" viewBox="0 0 462.554 462.554"><path d="M281.189 128.146l-2.05 2.61c-3.75 4.78-9.38 7.52-15.46 7.52-6.07 0-11.71-2.74-15.46-7.52l-2.05-2.61h35.02zM215.339 128.146l-2.04 2.61c-3.75 4.78-9.39 7.52-15.47 7.52-6.07 0-11.71-2.74-15.46-7.52l-2.04-2.61h35.01zM149.499 194.156l-2.04 2.6c-3.75 4.78-9.39 7.52-15.47 7.52-6.07 0-11.71-2.74-15.46-7.52l-2.04-2.6h35.01zM215.339 194.156l-2.04 2.6c-3.75 4.78-9.39 7.53-15.47 7.53-6.07 0-11.71-2.75-15.46-7.53l-2.04-2.6h35.01zM281.189 194.156l-2.05 2.6c-3.75 4.79-9.38 7.53-15.46 7.53-6.07 0-11.71-2.74-15.46-7.53l-2.05-2.6h35.02zM347.039 194.156l-2.05 2.61c-3.75 4.78-9.38 7.52-15.46 7.52-6.07 0-11.71-2.74-15.46-7.52l-2.05-2.61h35.02z" fill="#E6E6E6"/><path fill="#E0974F" d="M250.589 51.696l-2.71 16.47h-34.22l-2.72-16.47"/><path d="M282.459 360.376c4.01 0 7.27 3.26 7.27 7.27 0 4-3.26 7.27-7.27 7.27s-7.27-3.27-7.27-7.27c0-4.01 3.26-7.27 7.27-7.27zM230.769 360.376c4.01 0 7.27 3.26 7.27 7.27 0 4-3.26 7.27-7.27 7.27s-7.27-3.27-7.27-7.27c0-4.01 3.26-7.27 7.27-7.27zM179.079 360.376c4.01 0 7.27 3.26 7.27 7.27 0 4-3.26 7.27-7.27 7.27s-7.27-3.27-7.27-7.27c0-4.01 3.26-7.27 7.27-7.27z" fill="#E5D665"/><path d="M103.479 422.756l-4.01 8.75h-25.09v-38.45h6.99c5.44 10.64 12.67 20.7 22.11 29.7z" fill="#AD723D"/><path fill="#E0974F" d="M47.649 268.786h121.3v15.73h-121.3zM320.859 318.356l61.31-14.24c-4.92 79.79-71.27 143.19-152.12 143.19-92.57 0-142.35-36.68-148.1-109.04h71.79c4.14 0 7.5-3.35 7.5-7.5 0-4.14-3.36-7.5-7.5-7.5H47.649v-23.75h121.3v10.15c0 15.77 12.83 28.6 28.61 28.6h97.99c12.25 0 22.54-8.5 25.31-19.91zm-16.13 49.29c0-12.28-9.99-22.27-22.27-22.27s-22.27 9.99-22.27 22.27 9.99 22.27 22.27 22.27 22.27-9.99 22.27-22.27zm-51.69 0c0-12.28-9.99-22.27-22.27-22.27s-22.27 9.99-22.27 22.27 9.99 22.27 22.27 22.27 22.27-9.99 22.27-22.27zm-51.69 0c0-12.28-9.99-22.27-22.27-22.27s-22.27 9.99-22.27 22.27 9.99 22.27 22.27 22.27 22.27-9.99 22.27-22.27z"/><path d="M447.639 281.196c.94 4.03-1.57 8.06-5.61 9l-44.69 10.39c-3.16 89.71-76.98 161.72-167.29 161.72-53.19 0-89.77-11.71-114.62-29.63l-4.32 9.45c-1.22 2.67-3.89 4.38-6.82 4.38h-37.41c-4.14 0-7.5-3.36-7.5-7.5v-53.45c0-4.14 3.36-7.5 7.5-7.5h8.06c-4.63-13.08-7.06-26.63-8.03-39.79h-26.76c-4.14 0-7.5-3.35-7.5-7.5v-31.25h-10.43c-4.14 0-7.5-3.36-7.5-7.5 0-4.14 3.36-7.5 7.5-7.5h10.43v-15.73h-10.43c-4.14 0-7.5-3.36-7.5-7.5 0-4.14 3.36-7.5 7.5-7.5h154.23c4.14 0 7.5 3.36 7.5 7.5v48.38c0 7.5 6.1 13.6 13.61 13.6h25.71v-115.12c-6.55 7.1-15.66 11.14-25.44 11.14-10.71 0-20.65-4.84-27.26-13.27l-5.66-7.21-5.65 7.21c-6.61 8.43-16.55 13.26-27.27 13.26-10.71 0-20.65-4.83-27.26-13.26l-9.3-11.86h-10.43c-4.15 0-7.5-3.36-7.5-7.5 0-4.15 3.35-7.5 7.5-7.5h138.27v-37.01c-6.55 7.1-15.66 11.13-25.44 11.13-10.71 0-20.65-4.83-27.26-13.26l-9.31-11.87h-11.66c-4.14 0-7.5-3.35-7.5-7.5 0-4.14 3.36-7.5 7.5-7.5h73.67v-29.98h-15.97c-3.67 0-6.8-2.66-7.4-6.28l-5.19-31.47c-.36-2.18.25-4.4 1.68-6.08 1.42-1.67 3.51-2.64 5.72-2.64h21.16V7.746c0-4.14 3.36-7.5 7.5-7.5 4.14 0 7.5 3.36 7.5 7.5v28.95h21.16c2.2 0 4.3.97 5.72 2.64 1.43 1.68 2.04 3.9 1.68 6.08l-5.19 31.47c-.6 3.62-3.73 6.28-7.4 6.28h-15.97v29.98h73.67c4.14 0 7.5 3.36 7.5 7.5 0 4.15-3.36 7.5-7.5 7.5h-11.69l-9.3 11.87c-6.62 8.43-16.55 13.26-27.27 13.26-9.76 0-18.87-4.02-25.41-11.11v36.99h138.27c4.14 0 7.5 3.35 7.5 7.5 0 4.14-3.36 7.5-7.5 7.5h-10.43l-9.31 11.87c-6.62 8.43-16.55 13.26-27.27 13.26-10.71 0-20.65-4.83-27.26-13.26l-5.66-7.22-5.66 7.21c-6.62 8.43-16.55 13.27-27.27 13.27-9.76 0-18.87-4.03-25.41-11.11v115.09h57.28c6.08 0 11.03-4.95 11.03-11.03 0-3.49 2.41-6.52 5.81-7.31l126.25-29.34c4.03-.94 8.06 1.57 9 5.61zm-65.47 22.92l-61.31 14.24c-2.77 11.41-13.06 19.91-25.31 19.91h-97.99c-15.78 0-28.61-12.83-28.61-28.6v-10.15h-121.3v23.75h106.09c4.14 0 7.5 3.36 7.5 7.5 0 4.15-3.36 7.5-7.5 7.5h-71.79c5.75 72.36 55.53 109.04 148.1 109.04 80.85 0 147.2-63.4 152.12-143.19zm-37.18-107.35l2.05-2.61h-35.02l2.05 2.61c3.75 4.78 9.39 7.52 15.46 7.52 6.08 0 11.71-2.74 15.46-7.52zm-65.85-66.01l2.05-2.61h-35.02l2.05 2.61c3.75 4.78 9.39 7.52 15.46 7.52 6.08 0 11.71-2.74 15.46-7.52zm0 66l2.05-2.6h-35.02l2.05 2.6c3.75 4.79 9.39 7.53 15.46 7.53 6.08 0 11.71-2.74 15.46-7.53zm-31.26-128.59l2.71-16.47h-39.65l2.72 16.47h34.22zm-34.58 62.59l2.04-2.61h-35.01l2.04 2.61c3.75 4.78 9.39 7.52 15.46 7.52 6.08 0 11.72-2.74 15.47-7.52zm0 66l2.04-2.6h-35.01l2.04 2.6c3.75 4.78 9.39 7.53 15.46 7.53 6.08 0 11.72-2.75 15.47-7.53zm-44.35 87.76v-15.73h-121.3v15.73h121.3zm-21.49-87.76l2.04-2.6h-35.01l2.04 2.6c3.75 4.78 9.39 7.52 15.46 7.52 6.08 0 11.72-2.74 15.47-7.52zm-47.99 234.75l4.01-8.75c-9.44-9-16.67-19.06-22.11-29.7h-6.99v38.45h25.09z" fill="#4D4D4D"/><path d="M282.459 345.376c12.28 0 22.27 9.99 22.27 22.27s-9.99 22.27-22.27 22.27-22.27-9.99-22.27-22.27 9.99-22.27 22.27-22.27zm7.27 22.27c0-4.01-3.26-7.27-7.27-7.27s-7.27 3.26-7.27 7.27c0 4 3.26 7.27 7.27 7.27s7.27-3.27 7.27-7.27zM230.769 345.376c12.28 0 22.27 9.99 22.27 22.27s-9.99 22.27-22.27 22.27-22.27-9.99-22.27-22.27 9.99-22.27 22.27-22.27zm7.27 22.27c0-4.01-3.26-7.27-7.27-7.27s-7.27 3.26-7.27 7.27c0 4 3.26 7.27 7.27 7.27s7.27-3.27 7.27-7.27zM179.079 345.376c12.28 0 22.27 9.99 22.27 22.27s-9.99 22.27-22.27 22.27-22.27-9.99-22.27-22.27 9.99-22.27 22.27-22.27zm7.27 22.27c0-4.01-3.26-7.27-7.27-7.27s-7.27 3.26-7.27 7.27c0 4 3.26 7.27 7.27 7.27s7.27-3.27 7.27-7.27z" fill="#4D4D4D"/></svg>