<?xml version="1.0" encoding="iso-8859-1"?>
<!-- Generator: Adobe Illustrator 19.0.0, SVG Export Plug-In . SVG Version: 6.00 Build 0)  -->
<svg version="1.1" id="Layer_1" xmlns="http://www.w3.org/2000/svg" xmlns:xlink="http://www.w3.org/1999/xlink" x="0px" y="0px"
	 viewBox="0 0 512 512" style="enable-background:new 0 0 512 512;" xml:space="preserve">
<polygon style="fill:#EC5564;" points="398.656,351.383 348.656,362.711 313.344,381.383 261.336,392.711 223.336,393.383 
	160,382.055 129.336,370.711 102.664,350.711 62.664,340.711 30,330.539 16.664,330.539 19.336,342.055 33.336,362.711 
	51.336,387.383 57.336,432.711 87.5,464.055 146,469.383 338,466.711 384,448.055 418,389.383 418,346.055 "/>
<polygon style="fill:#424953;" points="375,183.539 359.5,132.602 338.5,95.539 87.5,95.539 110.5,207.258 110,330.539 
	149.336,320.039 245.328,310.539 359.5,325.039 366,294.539 380,238.539 "/>
<path style="fill:#CBD0D8;" d="M284.828,204.445c0,28.984-22.461,52.484-50.164,52.484s-50.164-23.5-50.164-52.484
	c0-29,22.461-52.5,50.164-52.5S284.828,175.445,284.828,204.445z"/>
<path d="M512,319.852c0-5.875-4.781-10.656-10.656-10.656c-1.031,0-2.016,0.156-2.953,0.406l0,0l-0.234,0.063l0,0l-108.281,31.094
	l0,0l-48.531,13.938c0,0-19.813,26.703-96.008,29v-62.188c2.188-0.031,4.383-0.063,6.586-0.063c41.5,0,76.359,6.359,103.594,18.891
	l10.266,4.734l4.125-10.531c0.594-1.5,14.406-37.25,18.266-85.219c2.281-28.344,0.578-55.094-5.063-79.531
	c-7.141-30.875-20.578-58.063-39.984-80.781l-3.203-3.75h-94.586V42.664c0-5.906-4.781-10.672-10.672-10.672S224,36.758,224,42.664
	v4.219c-5.336,2.094-15.844,4.109-30.289-3.156c-31.406-15.781-68.219-0.969-69.766-0.328l0.023,0.047
	c-3.891,1.594-6.633,5.422-6.633,9.875c0,5.906,4.773,10.672,10.664,10.672c1.695,0,3.297-0.406,4.719-1.109
	c4.469-1.625,30.836-10.422,51.414-0.094c10.961,5.516,20.719,7.391,28.938,7.391c4.031,0,7.68-0.453,10.93-1.156v16.234H85.336
	l-15.172,0.016l5.133,14.266c0.102,0.281,9.992,28.016,17.891,70.125c7.258,38.656,14.281,97.703,6.531,159.531l-1.18,9.406
	l-87.844-29.406L0,351.852l24.281,11.625l4.211,18.031l13.195,9.719c0,0-12.547,82.625,73.68,88.625h188.555
	c0,0,1.828,0.156,5.031,0.156c22.781,0,115.234-7.438,118.141-127.734l77.188-22.172l0,0C508.734,328.82,512,324.727,512,319.852z
	 M99.969,106.602H330c29,36.094,41.438,83.313,36.953,140.438c-2.375,30.313-9.172,55.813-13.391,69.344
	c-28.141-10.797-62.25-16.25-101.641-16.25c-54.438,0-104.969,10.297-129.375,16.172c5.273-58.953-1.5-114.016-8.477-151.047
	C109.219,139.523,103.734,119.195,99.969,106.602z M113.281,340.758c0.578-0.172,50.711-14.594,110.719-18.391v61.266
	c-77.648-3.219-113.516-41.031-113.516-41.031l-1.633-0.563L113.281,340.758z M379,430.82
	c-10.188,10.828-23.344,18.656-39.125,23.313c-13.406,3.953-25.125,4.531-30.922,4.531c-1.906,0-3.094-0.063-3.359-0.063
	l-0.703-0.078h-0.969H116.141c-19.266-1.453-33.422-7.625-42.109-18.328c-14.516-17.906-11.43-44.344-11.234-45.813l2.063-12.578
	l-10.516-7.75l-6.867-5.047l-2.422-10.375l-2.328-9.984l-9.242-4.422l-8.555-4.094l0.852-3.391L99.33,361.35
	c5.445,4.781,15.93,12.938,31.734,20.922c29.68,15,65.508,22.922,103.602,22.922c38.336,0,69.992-5.547,94.055-16.5
	c11.609-5.266,19.203-10.813,23.875-15.031l52.906-15.188C403.734,389.727,394.859,414.008,379,430.82z"/>
<path d="M288,415.852c-5.891,0-10.656,4.781-10.656,10.672s4.766,10.672,10.656,10.672s10.656-4.781,10.656-10.672
	S293.891,415.852,288,415.852z"/>
<path d="M245.336,415.852c-5.891,0-10.672,4.781-10.672,10.672s4.781,10.672,10.672,10.672S256,432.414,256,426.523
	S251.227,415.852,245.336,415.852z"/>
<path d="M202.664,415.852c-5.891,0-10.664,4.781-10.664,10.672s4.773,10.672,10.664,10.672s10.672-4.781,10.672-10.672
	S208.555,415.852,202.664,415.852z"/>
<path d="M160,415.852c-5.891,0-10.664,4.781-10.664,10.672s4.773,10.672,10.664,10.672s10.664-4.781,10.664-10.672
	S165.891,415.852,160,415.852z"/>
<path d="M192,244.289v26.969h85.344v-26.969c13.078-11.719,21.313-28.734,21.313-47.688c0-35.344-28.641-64-63.992-64
	c-35.344,0-64,28.656-64,64C170.664,215.555,178.906,232.57,192,244.289z M234.664,153.93c23.531,0,42.68,19.141,42.68,42.672
	c0,12.125-5.188,23.703-14.234,31.797l-7.11,6.359v9.531v5.641c0-5.891-4.773-10.672-10.664-10.672s-10.672,4.781-10.672,10.672
	c0-5.891-4.773-10.672-10.664-10.672s-10.664,4.781-10.664,10.672v-5.641v-9.531l-7.109-6.359
	C197.188,220.305,192,208.727,192,196.602C192,173.07,211.141,153.93,234.664,153.93z"/>
<path d="M250.664,207.258c5.891,0,10.672-4.766,10.672-10.656s-4.781-10.672-10.672-10.672S240,190.711,240,196.602
	S244.773,207.258,250.664,207.258z"/>
<path d="M218.664,207.258c5.891,0,10.672-4.766,10.672-10.656s-4.781-10.672-10.672-10.672S208,190.711,208,196.602
	S212.773,207.258,218.664,207.258z"/>
<g>
</g>
<g>
</g>
<g>
</g>
<g>
</g>
<g>
</g>
<g>
</g>
<g>
</g>
<g>
</g>
<g>
</g>
<g>
</g>
<g>
</g>
<g>
</g>
<g>
</g>
<g>
</g>
<g>
</g>
</svg>
