<svg xmlns="http://www.w3.org/2000/svg" viewBox="0 0 512 512"><path d="M171.181 340.819c-52.5-52.5-118.497 43.543-118.497 43.543l24.597-7.532-53.691 63.3 35.351-9.502L0 511.999l81.371-58.94-9.502 35.35 63.299-53.691-7.532 24.597c.001.001 96.045-65.996 43.545-118.496z" fill="#F9D026"/><path d="M171.181 340.819L0 511.999l81.371-58.94-9.502 35.35 63.299-53.691-7.532 24.597c.001.001 96.045-65.996 43.545-118.496z" fill="#E7C224"/><path fill="#F74D37" d="M183.216 222.837l-129.41-21.812 67.988-67.987 129.41 21.811"/><path fill="#C43D2C" d="M289.163 328.785l21.812 129.41 67.988-67.988-21.812-129.409"/><path d="M465.429 159.887C508.154 86.257 512 .005 512 .002c0 0-86.254 3.843-159.885 46.57-16.993 9.862-33.312 21.791-47.746 36.225L144.103 243.063c-24.293 24.293-24.9 68.627 15.655 109.182 40.555 40.555 84.888 39.947 109.182 15.655l160.266-160.266c14.432-14.435 26.363-30.754 36.223-47.747z" fill="#EDEEF0"/><path d="M465.429 159.887C508.154 86.257 512 .005 512 .002L408.772 103.23 206.521 305.481l-46.763 46.763c40.555 40.555 84.888 39.947 109.182 15.655l160.266-160.266c14.432-14.434 26.363-30.753 36.223-47.746z" fill="#DCDEE2"/><path d="M512 .002s-86.254 3.843-159.885 46.57l56.657 56.657 56.657 56.657C508.154 86.257 512 .005 512 .002z" fill="#F74D37"/><path d="M206.52 305.481l-62.418-62.418c-24.293 24.293-24.9 68.627 15.655 109.182s84.888 39.947 109.182 15.655l-62.419-62.419z" fill="#444242"/><path d="M268.938 367.899l-62.418-62.418-46.763 46.763c40.554 40.555 84.889 39.947 109.181 15.655z" fill="#3A3839"/><circle cx="344.932" cy="167.068" r="40.764" fill="#BCE8F7"/><path fill="#F74D37" d="M273.048 238.951l-105.833 75.482-75.482 105.834-.002.001 105.835-75.482"/><g fill="#C43D2C"><path d="M197.566 344.786l75.482-105.835L91.733 420.267l-.002.001M512 .001L408.772 103.229l56.657 56.657C508.154 86.257 512 .005 512 .001z"/></g><path d="M373.756 195.894c15.919-15.919 15.919-41.729 0-57.649l-57.649 57.649c15.918 15.92 41.729 15.92 57.649 0z" fill="#8EC1D6"/></svg>