<svg xmlns="http://www.w3.org/2000/svg" viewBox="0 0 443.883 443.883"><path fill="#E6E6E6" d="M336.036 166.27v277.61h-7.98l-8.59-49.56c-3.14-18.14-12.93-32.76-25.87-38.63-1.48-.67-2.91-1.45-4.29-2.34V166.27h46.73z"/><path fill="#F4581B" d="M336.036 150.31v15.96h-46.73v-15.96c0-22.16 8.34-43.52 23.37-59.82 15.021 16.3 23.36 37.66 23.36 59.82zM319.467 394.32l8.59 49.56H266.657V304.66c0 21.03 8.96 39.92 22.65 48.69 1.38.89 2.81 1.67 4.29 2.34 12.939 5.87 22.73 20.49 25.87 38.63z"/><path fill="#CCC" d="M289.307 213.05v140.3c-13.69-8.77-22.65-27.66-22.65-48.69v-69.84c0-32.42-12.2-63.65-34.17-87.49-5.68-6.16-15.4-6.16-21.08 0-10.99 11.92-19.54 25.69-25.33 40.53-5.8 14.84-8.85 30.75-8.85 46.96v69.84c0 21.04-8.95 39.93-22.65 48.69V172.47c0-30.84 5.6-61.12 16.26-89.49h102.22c10.65 28.37 16.25 58.65 16.25 89.49v40.58z"/><path fill="#F4581B" d="M273.057 82.98h-102.22c11.43-30.44 28.69-58.66 51.11-82.98 22.42 24.32 39.67 52.54 51.11 82.98z"/><path fill="#FFF" d="M244.786 162.94c-3.67-5.48-7.78-10.7-12.3-15.61-5.68-6.16-15.4-6.16-21.08 0-4.53 4.91-8.64 10.13-12.31 15.62-5.26 7.83-9.61 16.18-13.02 24.91-5.8 14.84-8.85 30.75-8.85 46.96v209.06h89.43V234.82c0-25.75-7.689-50.74-21.87-71.88z"/><path fill="#F4581B" d="M244.786 162.94c-5.58 6.32-13.74 10.3-22.84 10.3s-17.26-3.98-22.85-10.29c3.67-5.49 7.78-10.71 12.31-15.62 5.68-6.16 15.4-6.16 21.08 0 4.521 4.91 8.63 10.13 12.3 15.61z"/><path fill="#96E0DE" d="M253.335 213.159l-14.081 14.067c-9.542-9.542-25.069-9.542-34.625 0l-14.081-14.067c17.319-17.305 45.481-17.305 62.787 0z"/><path fill="#F4581B" d="M154.577 353.35c13.7-8.76 22.65-27.65 22.65-48.69v139.22h-61.39l8.58-49.56c3.15-18.14 12.94-32.76 25.88-38.63 1.47-.67 2.9-1.45 4.28-2.34z"/><path fill="#E6E6E6" d="M154.577 213.05v140.3c-1.38.89-2.81 1.67-4.28 2.34-12.94 5.87-22.73 20.49-25.88 38.63l-8.58 49.56h-7.99V166.27h46.73v46.78z"/><path fill="#F4581B" d="M154.577 150.31v15.96h-46.73v-15.96c0-22.16 8.34-43.52 23.37-59.82 15.02 16.3 23.36 37.66 23.36 59.82zM229.445 443.883h-15v-72.448c0-4.142 3.358-7.5 7.5-7.5 4.142 0 7.5 3.358 7.5 7.5v72.448z"/></svg>
