<svg xmlns="http://www.w3.org/2000/svg" viewBox="0 0 512 512"><path fill="#5C546A" d="M368 448h40v32h-40zM464 432v-24c0-4.418-3.582-8-8-8h-32v32h40zM368 400h40v32h-40zM312 448v24c0 4.418 3.582 8 8 8h32v-32h-40zM424 480h32c4.418 0 8-3.582 8-8v-24h-40v32zM352 400h-32c-4.418 0-8 3.582-8 8v24h40v-32z"/><path fill="#888693" d="M312 448h40v32h16v-32h40v32h16v-32h40v-16h-40v-32h-16v32h-40v-32h-16v32h-56v16"/><path d="M200 432v-24c0-4.418-3.582-8-8-8h-32v32h40zM160 480h32c4.418 0 8-3.582 8-8v-24h-40v32zM48 448v24c0 4.418 3.582 8 8 8h32v-32H48zM104 400h40v32h-40zM104 448h40v32h-40zM88 400H56c-4.418 0-8 3.582-8 8v24h40v-32zM240 112v24h32v-24h-16M256 312h-16v16h32v-16h-16" fill="#5C546A"/><path d="M256 248c-19.352 0-35.492-13.742-39.198-32H192v55.996c0 .652.078 1.305.242 1.941-.164-.635-.242-1.287-.242-1.938h64v40h48c3.672 0 6.867-2.5 7.758-6.059l8-32.004c.164-.635.242-1.287.242-1.938h-64V248zM256 168v-32H227.312c-4.211 0-8.336 1.707-11.313 4.688L196.688 160c-3.023 3.023-4.688 7.039-4.688 11.313V200h24.802c3.706-18.258 19.847-32 39.198-32z" fill="#B6B8BE"/><path d="M293.573 221.753c-2.692 7.352-7.48 13.693-13.64 18.3-3.594 2.687-7.654 4.785-12.038 6.148-1.252.39-2.531.719-3.833.986-2.604.533-5.3.813-8.061.813v24h64v-56h-24.802c-.402 1.974-.946 3.896-1.626 5.753zM256 168c2.761 0 5.458.28 8.061.813 1.302.266 2.581.596 3.833.986 4.384 1.364 8.444 3.461 12.038 6.148 6.674 4.991 11.737 12.017 14.269 20.158.389 1.253.719 2.531.986 3.833.004.02.007.041.011.061H320v-28.688c0-4.273-1.664-8.289-4.688-11.313L296 140.688c-2.977-2.98-7.102-4.688-11.313-4.688H256v32z" fill="#D5D9DE"/><path d="M40 16H8c-4.418 0-8 3.582-8 8v24h40V16zM112 16h40v32h-40zM56 16h40v32H56zM208 48V24c0-4.418-3.582-8-8-8h-32v32h40zM168 96h32c4.418 0 8-3.582 8-8V64h-40v32zM112 64h40v32h-40zM0 64v24c0 4.418 3.582 8 8 8h32V64H0zM56 64h40v32H56z" fill="#5C546A"/><path fill="#888693" d="M208 48h-40V16h-16v32h-40V16H96v32H56V16H40v32H0v16h40v32h16V64h40v32h16V64h40v32h16V64h56V48"/><path d="M344 16h-32c-4.418 0-8 3.582-8 8v24h40V16zM360 64h40v32h-40zM416 16h40v32h-40zM360 16h40v32h-40zM416 64h40v32h-40zM504 16h-32v32h40V24c0-4.418-3.582-8-8-8zM472 96h32c4.418 0 8-3.582 8-8V64h-40v32zM304 64v24c0 4.418 3.582 8 8 8h32V64h-40z" fill="#5C546A"/><path fill="#888693" d="M472 16h-16v32h-40V16h-16v32h-40V16h-16v32h-56v16h56v32h16V64h40v32h16V64h40v32h16V64h40V48h-40"/><path d="M256 32v80h24c4.418 0 8-3.582 8-8V32h-32zM272 0h-16v16h32c0-8.836-7.163-16-16-16z" fill="#D5D9DE"/><path d="M256 328h-16c-3.258 0-6.195 1.977-7.414 5l-14.141 35H256v-40zM256 400v-16h-40v48h-56v-32h-16v32h-40v-32H88v32H48v16h40v32h16v-32h40v32h16v-32h56v48c0 8.824 7.18 16 16 16h16V408c0-4.418 3.582-8 8-8z" fill="#888693"/><path d="M256 0h-16c-8.836 0-16 7.163-16 16h32V0zM256 32h-32v72c0 4.418 3.582 8 8 8h24V32z" fill="#B6B8BE"/><path fill="#888693" d="M224 16h32v16h-32z"/><path fill="#B6B8BE" d="M256 16h32v16h-32z"/><path d="M264.061 247.187c1.302-.266 2.581-.596 3.833-.986-1.252.39-2.531.72-3.833.986z" fill="#888693"/><path d="M239.029 191.03C234.686 195.373 232 201.373 232 208c0 13.255 10.745 24 24 24 6.627 0 12.627-2.686 16.97-7.029l-33.941-33.941z" fill="#FFCF00"/><path d="M256 272h-63.999c0 .651.078 1.302.242 1.938l8 32.004c.89 3.558 4.085 6.058 7.757 6.058h48v-40z" fill="#888693"/><path d="M256 400c4.418 0 8 3.582 8 8v104h16c8.82 0 16-7.176 16-16V384h-40v16zM256 368h37.555l1.21 2.996c-.055-.156-.109-.309-.172-.461L279.414 333c-1.219-3.023-4.156-5-7.414-5h-16v40z" fill="#B6B8BE"/><path d="M256 368h-37.555l-1.21 2.996c-.82 2.445-1.234 5.004-1.234 7.602V384h40v-16z" fill="#5C546A"/><path d="M256 368v16h40v-5.402c0-2.598-.414-5.156-1.234-7.602l-1.21-2.996H256z" fill="#888693"/><path d="M256 400c-4.418 0-8 3.582-8 8v104h16V408c0-4.418-3.582-8-8-8z" fill="#D5D9DE"/><path d="M242.038 188.486c-.36.258-.712.524-1.057.801-.128.103-.256.205-.382.311-.543.455-1.069.932-1.57 1.433l33.941 33.941c4.343-4.343 7.03-10.343 7.03-16.971 0-.414-.011-.826-.031-1.235-.622-12.272-10.462-22.112-22.734-22.734-.409-.022-.821-.032-1.235-.032-1.657 0-3.275.168-4.837.488-3.35.685-6.442 2.075-9.125 3.998z" fill="#FFEDB9"/><path d="M295.187 199.939c-.266-1.302-.596-2.581-.986-3.833-2.532-8.141-7.595-15.168-14.269-20.158-3.594-2.688-7.654-4.785-12.038-6.148-1.252-.389-2.531-.719-3.833-.986-2.604-.533-5.3-.813-8.061-.813v16c.414 0 .826.01 1.235.031 12.272.622 22.112 10.462 22.734 22.734.021.409.031.821.031 1.235 0 6.627-2.687 12.627-7.03 16.971C268.628 229.314 262.628 232 256 232v16c2.761 0 5.458-.28 8.061-.813 1.302-.266 2.581-.596 3.833-.986 4.384-1.364 8.444-3.461 12.038-6.148 6.16-4.607 10.948-10.948 13.64-18.3.68-1.857 1.225-3.779 1.625-5.753H320v-16h-24.802c-.004-.02-.006-.041-.011-.061z" fill="#B6B8BE"/><path d="M240.599 189.597c.126-.105.254-.208.382-.311.344-.277.697-.543 1.057-.801 2.683-1.923 5.775-3.312 9.125-3.998 1.562-.32 3.18-.488 4.837-.488v-16c-19.352 0-35.492 13.742-39.198 32H192v16h24.802c3.706 18.258 19.847 32 39.198 32v-16c-13.255 0-24-10.745-24-24 0-6.627 2.686-12.627 7.029-16.97.501-.5 1.027-.977 1.57-1.432z" fill="#888693"/></svg>