<svg xmlns="http://www.w3.org/2000/svg" viewBox="0 0 512 512"><path d="M304.002 327.992V336c0 4.418 3.578 8 8 8h32v-16.008h-40zM399.998 311.992v16h-39.995V344H392c4.422 0 8-3.582 8-8v-32c0-4.418-3.578-8-8-8h-31.998v15.992h39.996zM344.002 296h-32c-4.422 0-8 3.582-8 8v7.992h40V296z" fill="#5C546A"/><path d="M286.994 327.992H344.002V344h16v-16.008h39.995v-16h-39.995V296h-16v15.992H286.99c.659 2.559 1.01 5.242 1.01 8.008 0 2.76-.35 5.438-1.006 7.992z" fill="#888693"/><path d="M167.998 344h32c4.422 0 8-3.582 8-8v-8.008h-40V344zM207.998 311.992V304c0-4.418-3.578-8-8-8h-32v15.992h40zM112.002 327.992v-16h39.995V296H120c-4.422 0-8 3.582-8 8v32c0 4.418 3.578 8 8 8h31.998v-16.008h-39.996z" fill="#5C546A"/><path d="M225.01 311.992H167.997V296h-16v15.992h-39.995v16h39.995V344h16v-16.008h57.009C224.349 325.438 224 322.76 224 320c0-2.765.351-5.448 1.01-8.008z" fill="#888693"/><path d="M456 247.992v16h-39.998V280h32c4.422 0 8-3.582 8-8v-32c0-4.418-3.578-8-8-8h-32v15.992H456zM344.002 232h-32c-4.422 0-8 3.582-8 8v7.992h40V232zM360.002 263.992h40V280h-40zM360.002 232h40v15.992h-40zM304.002 263.992V272c0 4.418 3.578 8 8 8h32v-16.008h-40z" fill="#5C546A"/><path fill="#888693" d="M304.002 263.992h40V280h16v-16.008h40V280h16v-16.008H456v-16h-39.998V232h-16v15.992h-40V232h-16v15.992H288v16"/><path d="M168 280h32c4.422 0 8-3.582 8-8v-7.992h-40V280zM112 264.007h40v15.992h-40zM112 232h40v16.008h-40zM56.002 264.007v-16H96V232H64c-4.422 0-8 3.582-8 8v32c0 4.418 3.578 8 8 8h32v-15.992H56.002zM208 248.007V240c0-4.418-3.578-8-8-8h-32v16.008h40z" fill="#5C546A"/><path d="M256 408h16c4.422 0 8-3.582 8-8v-36.688c0-4.273-1.664-8.289-4.688-11.313l-3.934-3.934C266.814 350.572 261.574 352 256 352v56z" fill="#888693"/><path d="M240.622 348.066L236.688 352c-3.023 3.023-4.688 7.039-4.688 11.313V400c0 4.418 3.578 8 8 8h16v-56c-5.574 0-10.814-1.428-15.378-3.934z" fill="#5C546A"/><path d="M256 288v-56c-10.688 0-20.388-4.2-27.563-11.028C225.696 223.845 224 227.724 224 232v16.008h-56V232h-16v16.008h-40V232H96v16.008H56.002v16H96V280h16v-15.992h40V280h16v-15.992h56V288c0 5.226 2.529 9.859 6.415 12.781C236.254 293.02 245.54 288 256 288z" fill="#888693"/><path d="M256 288c10.46 0 19.746 5.02 25.585 12.781C285.47 297.859 288 293.226 288 288v-56c0-4.276-1.696-8.155-4.437-11.028C276.388 227.8 266.687 232 256 232v56zM208 152h16v.008h-16zM223.993 168.007H208V176c0 4.418-3.578 8-8 8h-24v16c0 8.836 7.163 16 16 16h32c-5.022-6.686-8-14.995-8-24 0-9.002 2.975-17.308 7.993-23.993zM400 184h-88c-4.422 0-8-3.582-8-8v-8.008h-16V136c0-8.824-7.18-16-16-16h-16v32c22.091 0 40 17.909 40 40 0 9.005-2.977 17.314-8 24h136c8.837 0 16-7.164 16-16v-16h-40z" fill="#B6B8BE"/><path d="M344 136h-32c-4.422 0-8 3.582-8 8v7.992h40V136zM416 136h40v15.992h-40zM504 136h-32v15.992h39.998v16H472V184h32c4.422 0 8-3.582 8-8v-32c0-4.418-3.578-8-8-8zM360 136h40v15.992h-40zM416 167.992V184h40v-16.008M360 167.992h40V184h-40zM312 184h32v-16.008h-40V176c0 4.418 3.578 8 8 8z" fill="#5C546A"/><path fill="#888693" d="M511.998 167.992v-16H472V136h-16v15.992h-40V136h-16v15.992h-40V136h-16v15.992h-56v16h56V184h16v-16.008h40V184h16v-16.008h40V184h16v-16.008"/><path fill="#5C546A" d="M112 136h40v16.008h-40zM208 152.007V144c0-4.418-3.578-8-8-8h-32v16.008h40zM56 136h40v16.008H56zM.002 168.007v-16H40V136H8c-4.422 0-8 3.582-8 8v32c0 4.418 3.578 8 8 8h32v-15.992H.002zM112 168.007h40v15.992h-40zM56 168.007h40v15.992H56zM208 176v-7.992h-40V184h32c4.422 0 8-3.582 8-8z"/><path d="M208 168.007h15.993C231.291 158.288 242.91 152 256 152v-32h-16c-8.82 0-16 7.176-16 16v16.008h-56V136h-16v16.008h-40V136H96v16.008H56V136H40v16.008H.002v16H40V184h16v-15.992h40V184h16v-15.992h40V184h16v-15.992h40z" fill="#888693"/><path d="M264 120v-8c0-4.418-3.578-8-8-8s-8 3.582-8 8v8h16z" fill="#5C546A"/><path d="M256 152c-13.09 0-24.709 6.288-32.007 16.008C218.975 174.692 216 182.998 216 192c0 9.005 2.977 17.314 8 24 1.338 1.781 2.827 3.439 4.437 4.972C235.612 227.8 245.313 232 256 232c10.687 0 20.388-4.2 27.563-11.028 1.61-1.533 3.1-3.191 4.437-4.972 5.022-6.686 8-14.995 8-24 0-22.091-17.909-40-40-40zm-24 40c0-13.255 10.745-24 24-24s24 10.745 24 24-10.745 24-24 24-24-10.745-24-24zM256 288c-10.46 0-19.746 5.02-25.585 12.781-2.483 3.3-4.344 7.095-5.405 11.212-.659 2.559-1.01 5.242-1.01 8.008 0 2.76.349 5.438 1.006 7.992 2.223 8.645 7.969 15.875 15.615 20.073C245.186 350.572 250.426 352 256 352s10.814-1.428 15.378-3.934c7.646-4.198 13.392-11.428 15.615-20.073.657-2.555 1.007-5.233 1.007-7.993 0-2.765-.351-5.448-1.01-8.008-1.061-4.117-2.921-7.912-5.405-11.212C275.746 293.02 266.46 288 256 288zm-16 32c0-7.638 5.356-14.016 12.515-15.608.156-.035.313-.069.471-.099.977-.187 1.983-.293 3.014-.293 1.104 0 2.183.112 3.224.325 1.292.264 2.519.701 3.677 1.257 3.043 1.459 5.562 3.836 7.167 6.792.009.016.016.034.024.051.415.77.757 1.584 1.043 2.424.127.373.236.753.336 1.139.2.774.362 1.563.445 2.377.055.538.083 1.084.083 1.636 0 8.836-7.164 16-16 16C247.163 336 240 328.836 240 320z" fill="#D5D9DE"/><path d="M280 192c0-13.255-10.745-24-24-24s-24 10.745-24 24 10.745 24 24 24 24-10.745 24-24zm-24 16c-8.837 0-16-7.163-16-16 0-7.638 5.356-14.016 12.515-15.608.156-.035.313-.069.471-.099.977-.187 1.983-.293 3.014-.293 1.104 0 2.183.112 3.224.325 1.292.264 2.519.701 3.677 1.257 3.043 1.459 5.562 3.836 7.167 6.792.009.017.016.034.024.051.415.77.757 1.584 1.043 2.424.127.373.236.754.336 1.139.332 1.285.528 2.625.528 4.013C272 200.837 264.836 208 256 208z" fill="#B6B8BE"/><path d="M252.986 176.293c.977-.187 1.983-.293 3.014-.293-1.031 0-2.037.106-3.014.293zM271.136 186.848c.127.373.236.754.336 1.139-.1-.385-.209-.766-.336-1.139zM256 176c1.104 0 2.183.112 3.224.325-1.041-.213-2.12-.325-3.224-.325zM270.069 184.373c.009.017.016.034.024.051-.009-.016-.015-.034-.024-.051zM244.687 180.686l.011.012M240 192c0 8.837 7.163 16 16 16 4.418 0 8.418-1.791 11.314-4.686l-22.615-22.615C241.8 183.591 240 187.58 240 192zM259.224 176.325c1.292.264 2.519.701 3.677 1.257-1.158-.556-2.384-.993-3.677-1.257z" fill="#FFCF00"/><path d="M256 304c1.104 0 2.183.112 3.224.325-1.041-.213-2.12-.325-3.224-.325zM259.224 304.325c1.292.264 2.519.701 3.677 1.257-1.158-.556-2.384-.993-3.677-1.257zM252.986 304.293c.977-.187 1.983-.293 3.014-.293-1.031 0-2.037.106-3.014.293zM240 320c0 8.836 7.163 16 16 16 4.418 0 8.418-1.791 11.314-4.686l-22.615-22.615C241.8 311.591 240 315.58 240 320zM271.136 314.848c.127.373.236.754.336 1.139-.1-.386-.209-.766-.336-1.139zM270.069 312.373c.009.017.016.034.024.051-.009-.016-.015-.034-.024-.051z" fill="#FF9300"/><path d="M271.136 186.848c-.286-.84-.628-1.653-1.043-2.424-.009-.017-.015-.034-.024-.051-1.605-2.956-4.125-5.332-7.167-6.792-1.158-.556-2.385-.992-3.677-1.257-1.042-.213-2.12-.325-3.224-.325-1.032 0-2.037.106-3.014.293-.158.03-.314.064-.471.099-3.018.671-5.718 2.184-7.828 4.294l22.627 22.627C270.209 200.418 272 196.418 272 192c0-1.389-.196-2.729-.528-4.013-.1-.385-.209-.766-.336-1.139z" fill="#FFEDB9"/><path d="M267.313 331.313C270.209 328.418 272 324.418 272 320c0-.552-.028-1.098-.083-1.636-.083-.814-.245-1.604-.445-2.377-.1-.385-.209-.765-.336-1.139-.286-.84-.628-1.653-1.043-2.424-.009-.017-.015-.034-.024-.051-1.605-2.956-4.125-5.332-7.167-6.792-1.158-.556-2.385-.992-3.677-1.257-1.042-.213-2.12-.325-3.224-.325-1.032 0-2.037.106-3.014.293-.158.03-.314.064-.471.099-3.018.671-5.718 2.184-7.828 4.294l22.625 22.628z" fill="#FFCF00"/></svg>