<svg xmlns="http://www.w3.org/2000/svg" viewBox="0 0 496 496"><path d="M252 275.156c-12 0-22.4-10.4-22.4-22.4v-129.6c0-12 10.4-22.4 22.4-22.4h49.6v27.2H256v124.8c0-2.4-2.4-4.8-4.8-4.8v27.2h.8z" fill="#89867C"/><g fill="#6D6B64"><path d="M252 127.956c-12 0-22.4 10.4-22.4 22.4v102.4c0 12 10.4 22.4 22.4 22.4v-27.2c2.4 0 4.8 2.4 4.8 4.8v-124.8H252zM304.8 130.356c0 2.4-2.4 4.8-4.8 4.8s-4.8-2.4-4.8-4.8v-30.4c0-2.4 2.4-4.8 4.8-4.8s4.8 2.4 4.8 4.8v30.4z"/></g><path d="M320.8 235.156c0 3.2-2.4 5.6-5.6 5.6h-132c-3.2 0-5.6-2.4-5.6-5.6l12-49.6c0-3.2 2.4-5.6 5.6-5.6h101.6c3.2 0 5.6 2.4 5.6 5.6l18.4 49.6z" fill="#FFAE0B"/><path d="M357.6 283.956c0 4.8-4 8.8-8.8 8.8h-200c-4.8 0-8.8-4-8.8-8.8l17.6-75.2c0-4.8 4-8.8 8.8-8.8h155.2c4.8 0 8.8 4 8.8 8.8l27.2 75.2z" fill="#FFD00D"/><path d="M357.6 288.756c0 4.8-4 8.8-8.8 8.8h-200c-4.8 0-8.8-4-8.8-8.8l17.6-75.2c0-4.8 4-8.8 8.8-8.8h155.2c4.8 0 8.8 4 8.8 8.8l27.2 75.2z" fill="#FFAE0B"/><g fill="#7A8487"><path d="M71.2 371.156c0 5.6-1.6 10.4-4 10.4-1.6 0-7.2-9.6-7.2-15.2s5.6-4.8 7.2-4.8c2.4 0 4 4 4 9.6zM60 391.156c0-5.6 1.6-10.4 4-10.4 1.6 0 7.2 9.6 7.2 15.2s-5.6 4.8-7.2 4.8c-2.4.8-4-4-4-9.6z"/></g><path d="M143.2 381.556c0 1.6-1.6 3.2-3.2 3.2H68.8c-1.6 0-3.2-1.6-3.2-3.2s1.6-3.2 3.2-3.2H140c1.6 0 3.2.8 3.2 3.2z" fill="#596568"/><path d="M314.4 390.356c0 4.8-4 8.8-8.8 8.8h-188c-4.8 0-8.8-4-8.8-8.8v-20c0-4.8 4-8.8 8.8-8.8h188c4.8 0 8.8 4 8.8 8.8v20z" fill="#7A8487"/><path d="M325.6 390.356c0 4.8-4 8.8-8.8 8.8h-188c-4.8 0-8.8-4-8.8-8.8v-20c0-4.8 4-8.8 8.8-8.8h188c4.8 0 8.8 4 8.8 8.8v20z" fill="#596568"/><path d="M70.4 285.556c0 20-38.4 36.8-49.6 36.8S0 305.556 0 285.556s2.4-43.2 13.6-43.2c12 0 56.8 23.2 56.8 43.2z" fill="#FFD00D"/><path d="M54.4 285.556c0 20-21.6 36.8-33.6 36.8S0 305.556 0 285.556s2.4-43.2 13.6-43.2c12 0 40.8 23.2 40.8 43.2z" fill="#FFAE0B"/><path d="M496 315.156c0 37.6-39.2 84.8-176 84.8-136 0-318.4-47.2-318.4-84.8s110.4-68 247.2-68c136.8 0 247.2 30.4 247.2 68z" fill="#FFD00D"/><path d="M496 315.156c0 37.6-39.2 84.8-176 84.8-136 0-318.4-47.2-318.4-84.8s129.6-54.4 265.6-54.4c136.8 0 228.8 16.8 228.8 54.4z" fill="#FFAE0B"/><path d="M496 315.156c0 37.6-39.2 84.8-176 84.8-136 0-318.4-47.2-318.4-84.8" fill="#FF860D"/><path d="M162.4 354.356c-12 0-21.6-19.2-21.6-31.2s9.6-21.6 21.6-21.6 21.6 9.6 21.6 21.6-9.6 31.2-21.6 31.2z" fill="#E56A0E"/><path d="M162.4 345.556c-12 0-21.6-9.6-21.6-21.6s9.6-21.6 21.6-21.6 21.6 9.6 21.6 21.6-9.6 21.6-21.6 21.6z" fill="#77ACBF"/><path d="M162.4 303.956c11.2 0 20 8.8 20 20s-8.8 20-20 20-20-8.8-20-20 9.6-20 20-20m0-4.8c-13.6 0-24 11.2-24 24 0 13.6 11.2 24 24 24 13.6 0 24-11.2 24-24s-10.4-24-24-24z" fill="#E8D918"/><path d="M142.4 323.156c0 11.2 8.8 20 20 20s20-8.8 20-20c0-3.2-.8-5.6-1.6-8h-36c-1.6 2.4-2.4 5.6-2.4 8z" fill="#539AAD"/><path d="M248.8 354.356c-12 0-21.6-19.2-21.6-31.2s9.6-21.6 21.6-21.6 21.6 9.6 21.6 21.6-9.6 31.2-21.6 31.2z" fill="#E56A0E"/><path d="M248.8 345.556c-12 0-21.6-9.6-21.6-21.6s9.6-21.6 21.6-21.6 21.6 9.6 21.6 21.6-9.6 21.6-21.6 21.6z" fill="#77ACBF"/><path d="M248.8 303.956c11.2 0 20 8.8 20 20s-8.8 20-20 20-20-8.8-20-20 9.6-20 20-20m0-4.8c-13.6 0-24 11.2-24 24 0 13.6 11.2 24 24 24 13.6 0 24-11.2 24-24s-10.4-24-24-24z" fill="#E8D918"/><path d="M228.8 323.156c0 11.2 8.8 20 20 20s20-8.8 20-20c0-3.2-.8-5.6-1.6-8h-36c-1.6 2.4-2.4 5.6-2.4 8z" fill="#539AAD"/><path d="M335.2 354.356c-12 0-21.6-19.2-21.6-31.2s9.6-21.6 21.6-21.6 21.6 9.6 21.6 21.6-9.6 31.2-21.6 31.2z" fill="#E56A0E"/><path d="M335.2 345.556c-12 0-21.6-9.6-21.6-21.6s9.6-21.6 21.6-21.6 21.6 9.6 21.6 21.6-9.6 21.6-21.6 21.6z" fill="#77ACBF"/><path d="M335.2 303.956c11.2 0 20 8.8 20 20s-8.8 20-20 20-20-8.8-20-20 9.6-20 20-20m0-4.8c-13.6 0-24 11.2-24 24 0 13.6 11.2 24 24 24 13.6 0 24-11.2 24-24s-10.4-24-24-24z" fill="#E8D918"/><path d="M315.2 323.156c0 11.2 8.8 20 20 20s20-8.8 20-20c0-3.2-.8-5.6-1.6-8h-36c-1.6 2.4-2.4 5.6-2.4 8z" fill="#539AAD"/><path d="M70.4 381.556c0 2.4-2.4 4.8-4.8 4.8s-4.8-2.4-4.8-4.8 2.4-4.8 4.8-4.8 4.8 1.6 4.8 4.8z" fill="#7A8487"/></svg>