<svg xmlns="http://www.w3.org/2000/svg" width="1224" height="1530"><style>.a{fill:#fff;}.b{fill:#FFF;font-weight:bold;}</style><title>  background</title><rect height="102" width="102" y="-1" x="-1" fill="none"/><title>  Layer 1</title><path d="m377.2 380.9l50.5-50.5c11.7-11.7 11.7-30.7 0-42.4 -11.7-11.7-30.7-11.7-42.4 0l-50.5 50.5 -50.5-50.5c-11.7-11.7-30.7-11.7-42.4 0 -11.7 11.7-11.7 30.7 0 42.4l50.5 50.5 -50.5 50.5c-11.7 11.7-11.7 30.7 0 42.4 5.9 5.9 13.5 8.8 21.2 8.8s15.4-2.9 21.2-8.8l50.5-50.5 50.5 50.5c5.9 5.9 13.5 8.8 21.2 8.8s15.4-2.9 21.2-8.8c11.7-11.7 11.7-30.7 0-42.4l-50.5-50.5z" class="a"/><path d="m955.8 431.4l-50.5-50.5 50.5-50.5c11.7-11.7 11.7-30.7 0-42.4 -11.7-11.7-30.7-11.7-42.4 0l-50.5 50.5 -50.5-50.5c-11.7-11.7-30.7-11.7-42.4 0 -11.7 11.7-11.7 30.7 0 42.4l50.5 50.5 -50.5 50.5c-11.7 11.7-11.7 30.7 0 42.4 5.9 5.9 13.5 8.8 21.2 8.8 7.7 0 15.4-2.9 21.2-8.8l50.5-50.5 50.5 50.5c5.9 5.9 13.5 8.8 21.2 8.8 7.7 0 15.4-2.9 21.2-8.8 11.7-11.7 11.7-30.7 0-42.4z" class="a"/><path d="m1077.1 934.9l-940.4 0c-20.4 0-37-16.6-37-37s16.6-37 37-37l940.4 0c20.4 0 37 16.6 37 37s-16.6 37-37 37z" style="fill:#fff;stroke:null"/></svg>
