<svg xmlns="http://www.w3.org/2000/svg" width="200" height="200"><style>.a{fill:#fff;}</style><title>  background</title><rect x="-1" y="-1" width="202" height="202" fill="none"/><rect width="100" height="100" fill="url(#gridpattern)"/><title>  Layer 1</title><path d="m109.2 151.5l-23.1-22.3c-1.4-0.7-3-0.6-4.3 0.2 -1.3 0.8-2.1 2.2-2.1 3.7l0 13.4 -8.9 0c-11 0-19.6-8.6-19.6-19.6l0-5.2c9.3-3.6 16-12.6 16-23.2s-6.7-19.6-16-23.2l0-5c0-10.9 8.9-19.8 19.8-19.8 4.9 0 8.9-4 8.9-8.9s-4-8.9-8.9-8.9c-20.7 0-37.6 16.9-37.6 37.6l0 5c-9.3 3.6-16 12.6-16 23.2s6.7 19.6 16 23.2l0 5.2c0 20.6 16.7 37.3 37.3 37.3l8.9 0 0 13.4c0 1.5 0.8 2.9 2.1 3.7 0.7 0.4 1.5 0.6 2.3 0.6 0.7 0 1.4-0.2 2-0.5l23.1-22.3c1.4-1.3 2.4-2.2 2.4-3.9 0-1.6-0.9-2.5-2.4-3.9zm-63.3-38.8l-7.1 0 0-10.7 -10.7 0 0-7.1 10.7 0 0-10.7 7.1 0 0 10.7 10.7 0 0 7.1 -10.7 0 0 10.7z" class="a"/><path d="m172.1 75.2l0-5c0-20.7-16.9-37.6-37.6-37.6l-6.9 0 0-13.2c0-1.5-0.9-2.9-2.2-3.7 -0.7-0.4-1.6-0.6-2.4-0.6 -0.7 0-1.4 0.2-2 0.5l-23.1 22.3c-1.4 1.3-2.5 2.2-2.5 3.9 0 1.6 0.9 2.5 2.4 3.9l23.1 22.3c1.4 0.7 3.1 0.6 4.4-0.2 1.3-0.8 2.2-2.2 2.2-3.7l0-13.7 6.9 0c10.9 0 19.8 8.9 19.8 19.8l0 5c-9.3 3.6-16 12.6-16 23.2s6.7 19.6 16 23.2l0 5c0 10.9-8.9 19.8-19.8 19.8 -4.9 0-8.9 4-8.9 8.9s4 8.9 8.9 8.9c20.7 0 37.6-16.9 37.6-37.6l0-5c9.3-3.6 16-12.6 16-23.2s-6.7-19.6-16-23.2zm5.3 26.8l-10.7 0 0 10.7 -7.1 0 0-10.7 -10.7 0 0-7.1 10.7 0 0-10.7 7.1 0 0 10.7 10.7 0 0 7.1z" class="a"/></svg>
