<svg width="100" height="100" xmlns="http://www.w3.org/2000/svg">

 <g>
  <title>background</title>
  <rect fill="none" id="canvas_background" height="102" width="102" y="-1" x="-1"/>
 </g>
 <g>
  <title>Layer 1</title>
  <g stroke="null" id="svg_1">
   <path id="svg_2" clip-rule="nonzero" fill="#000000" fill-rule="nonzero" stroke-width="2" stroke-linecap="round" stroke-linejoin="round" stroke-miterlimit="4" stroke-dashoffset="0" d="m41.937206,21.878245c-6.033324,0.000397 -11.122559,4.587751 -11.123036,10.399564c-0.000199,0.798163 0.284681,1.555604 0.47719,2.328341c-3.036914,1.883173 -5.224454,4.843409 -5.229798,8.393429c0.002582,1.798748 0.631181,3.491816 1.559617,5.032919c-0.925635,1.537527 -1.555266,3.230198 -1.559617,5.024973c0.004768,3.474732 2.105161,6.400404 5.043566,8.300263c-0.109315,0.588194 -0.291236,1.165859 -0.290958,1.765574c0.000318,5.811614 5.089612,10.394995 11.123036,10.395392c2.82472,0 5.351449,-1.222473 7.402419,-3.014864c2.04946,1.791001 4.575931,3.010891 7.398545,3.014864c6.033424,-0.000397 11.122718,-4.583778 11.123056,-10.395392c-0.000675,-0.330747 -0.105422,-0.649377 -0.139669,-0.977939c3.55876,-1.756833 6.008374,-5.150716 6.013499,-9.084124c-0.003973,-1.796761 -0.636107,-3.489829 -1.56351,-5.028946c0.928277,-1.539116 1.559041,-3.231986 1.56351,-5.028946c-0.001251,-3.996975 -2.522538,-7.425223 -6.160935,-9.157822c0.088199,-0.523435 0.285237,-1.027799 0.287104,-1.559974c-0.000477,-5.811813 -5.089732,-10.399167 -11.123056,-10.399564c-2.82466,0 -5.351409,1.227042 -7.402419,3.019433c-2.04956,-1.791597 -4.575633,-3.015262 -7.398545,-3.019433l0,-0.007747zm-0.003973,3.973534l0.003973,0c2.3461,0 4.522654,1.057596 5.835035,2.735964a1.986588,1.986966 0 0 0 3.12702,0c1.313215,-1.679361 3.491339,-2.732587 5.838909,-2.735964c4.055258,0.000397 7.147654,2.944345 7.150256,6.422255c-0.002781,0.683941 -0.128664,1.364903 -0.372443,2.017855a1.986588,1.986966 0 0 0 1.303561,2.603665c3.02287,0.884376 4.940111,3.37223 4.942713,6.104023c-0.003377,1.349806 -0.477567,2.666438 -1.385046,3.779258a1.986588,1.986966 0 0 0 0,2.510897c0.906962,1.112224 1.381152,2.430247 1.385046,3.779258c-0.005165,2.676767 -1.846085,5.126283 -4.783637,6.053566a1.986588,1.986966 0 0 0 -1.315221,2.437c0.147575,0.517475 0.223935,1.051041 0.225027,1.583216c-0.004768,3.475129 -3.094562,6.4157 -7.146363,6.417885c-2.347649,0 -4.525833,-1.052431 -5.838928,-2.731594a1.986588,1.986966 0 0 0 -3.12702,0c-1.313175,1.679361 -3.491299,2.728416 -5.838909,2.731594c-4.056827,-0.000199 -7.150058,-2.945934 -7.150256,-6.425632c-0.000278,-0.631101 0.10137,-1.255449 0.306492,-1.862712a1.986588,1.986966 0 0 0 -1.07466,-2.452296c-2.49574,-1.109443 -3.978064,-3.347201 -3.98444,-5.747054l0,0c0.004172,-1.347621 0.47574,-2.664054 1.381172,-3.775285a1.986588,1.986966 0 0 0 0,-2.510897c-0.906684,-1.113019 -1.378332,-2.430048 -1.381172,-3.779456c0,-0.001192 0,0 0,0c0.006953,-2.459249 1.563649,-4.744682 4.155137,-5.820554a1.986588,1.986966 0 0 0 1.066913,-2.61181c-0.312253,-0.735192 -0.469621,-1.509319 -0.469442,-2.289406c0.000298,-3.478308 3.091602,-6.423646 7.146363,-6.426029l-0.000079,-0.007747z"/>
   <path id="svg_3" clip-rule="nonzero" fill="#000000" fill-rule="evenodd" stroke-width="2" stroke-linecap="round" stroke-linejoin="round" stroke-miterlimit="4" stroke-dashoffset="0" d="m49.960377,35.789887a1.986588,1.986966 0 0 0 -1.93208,1.346429l-3.97278,11.152038a1.986588,1.986966 0 0 0 2.52955,2.541687l4.058138,-1.423901l-2.622656,7.558714a1.987065,1.987443 0 1 0 3.755519,1.300144l3.972799,-11.443454a1.986588,1.986966 0 0 0 -2.537317,-2.529967l-4.019342,1.412578l2.576093,-7.237105a1.986588,1.986966 0 0 0 -1.807925,-2.677165z"/>
   <path id="svg_4" clip-rule="nonzero" fill="#000000" fill-rule="evenodd" stroke-width="2" stroke-linecap="round" stroke-linejoin="round" stroke-miterlimit="4" stroke-dashoffset="0" d="m49.972017,0.027878a1.986588,1.986966 0 0 0 -1.998031,1.52104l-1.98639,7.799673a1.986588,1.986966 0 0 0 2.797247,2.273911l0.143562,-0.069526l-0.958293,3.860902a1.986847,1.987224 0 1 0 3.856412,0.958471l1.98639,-8.005471a1.986588,1.986966 0 0 0 -2.805014,-2.261993l-0.10864,0.053635l0.923371,-3.628286a1.986588,1.986966 0 0 0 -1.850615,-2.502753l0,0.000397z"/>
   <path id="svg_5" clip-rule="nonzero" fill="#000000" fill-rule="evenodd" stroke-width="2" stroke-linecap="round" stroke-linejoin="round" stroke-miterlimit="4" stroke-dashoffset="0" d="m14.100494,9.961813a1.986588,1.986966 0 0 0 -0.997069,3.678345l3.328766,2.107247a1.986588,1.986966 0 0 0 -0.287104,3.519626l6.851511,4.28402a1.98782,1.988197 0 1 0 2.106671,-3.37223l-3.146408,-1.967399a1.986588,1.986966 0 0 0 0.27157,-3.500159l-6.998947,-4.427443a1.986588,1.986966 0 0 0 -1.12899,-0.322007z"/>
   <path id="svg_6" clip-rule="nonzero" fill="#000000" fill-rule="evenodd" stroke-width="2" stroke-linecap="round" stroke-linejoin="round" stroke-miterlimit="4" stroke-dashoffset="0" d="m24.059638,71.547724a1.986588,1.986966 0 0 0 -1.070786,0.32598l-6.998947,4.427244a1.986588,1.986966 0 0 0 0.27159,3.500357l-3.146428,1.967201a1.987741,1.988118 0 1 0 2.106671,3.372032l6.851511,-4.283821a1.986588,1.986966 0 0 0 -0.287104,-3.519626l3.328766,-2.107048a1.986588,1.986966 0 0 0 -1.055272,-3.682318z"/>
   <path id="svg_7" clip-rule="nonzero" fill="#000000" fill-rule="evenodd" stroke-width="2" stroke-linecap="round" stroke-linejoin="round" stroke-miterlimit="4" stroke-dashoffset="0" d="m49.972017,77.511701a1.986588,1.986966 0 0 0 -1.998031,1.521238l-1.98639,7.799474a1.986588,1.986966 0 0 0 2.797247,2.273911l0.143562,-0.069526l-0.958293,3.8611a1.986827,1.987204 0 1 0 3.856412,0.958074l1.98639,-8.005074a1.986588,1.986966 0 0 0 -2.805014,-2.261993l-0.10864,0.053635l0.923371,-3.628087a1.986588,1.986966 0 0 0 -1.850615,-2.50315l0,0.000397z"/>
   <path id="svg_8" clip-rule="nonzero" fill="#000000" fill-rule="evenodd" stroke-width="2" stroke-linecap="round" stroke-linejoin="round" stroke-miterlimit="4" stroke-dashoffset="0" d="m85.637921,9.95784a1.986588,1.986966 0 0 0 -1.070806,0.32598l-6.998927,4.427443a1.986588,1.986966 0 0 0 0.27157,3.500159l-3.146428,1.967399a1.98782,1.988197 0 1 0 2.106671,3.37223l6.851511,-4.28402a1.986588,1.986966 0 0 0 -0.287085,-3.519626l3.328766,-2.107247a1.986588,1.986966 0 0 0 -1.055272,-3.682318z"/>
   <path id="svg_9" clip-rule="nonzero" fill="#000000" fill-rule="evenodd" stroke-width="2" stroke-linecap="round" stroke-linejoin="round" stroke-miterlimit="4" stroke-dashoffset="0" d="m75.678777,71.551697a1.986588,1.986966 0 0 0 -0.997088,3.678345l3.328766,2.107048a1.986588,1.986966 0 0 0 -0.287085,3.519626l6.851511,4.283821a1.987741,1.988118 0 0 0 2.106671,-3.372032l-3.146428,-1.967201a1.986588,1.986966 0 0 0 0.27157,-3.500357l-6.998927,-4.427244a1.986588,1.986966 0 0 0 -1.12899,-0.322007z"/>
  </g>
 </g>
</svg>
