<svg xmlns="http://www.w3.org/2000/svg" width="100" height="100"><style>.a{fill:#000;stroke-linejoin:round;stroke-width:2;stroke:#231F20;}.b{fill:#000;stroke:null;}</style><title>  background</title><rect height="102" width="102" y="-1" x="-1" fill="none"/><title>  Layer 1</title><circle r="4.7" cy="216.2" cx="72.1" class="a"/><circle r="4.7" cy="185.2" cx="27.9" class="a"/><line y2="202.6" x2="27.9" y1="197.6" x1="33" class="a"/><line y2="197.6" x2="27.9" y1="202.6" x1="33" class="a"/><line y2="218.7" x2="35.2" y1="213.7" x1="40.2" class="a"/><line y2="213.7" x2="35.2" y1="218.7" x1="40.2" class="a"/><line y2="198.4" x2="56.6" y1="193.3" x1="61.6" class="a"/><line y2="193.3" x2="56.6" y1="198.4" x1="61.6" class="a"/><polyline points=" 56.9 211.4 61.7 216.2 56.9 221 " style="fill:#000;stroke-linejoin:round;stroke-width:2;stroke:#211F1F"/><path d="m35.2 185.2c0 0 0.2 0 0.5 0" class="a"/><path d="m40.1 186c1.9 0.6 3.8 1.7 4.8 3.6 2 3.8 1.3 9.7 0.6 13.1" style="fill:#000;stroke-dasharray:0.9;stroke-linejoin:round;stroke-width:2;stroke:#231F20"/><path d="m45 205c-0.1 0.3-0.1 0.5-0.1 0.5" class="a"/><path d="m44.9 209.2c0 0 0 7 8.4 7 5.8 0 6.7 0 6.7 0" class="a"/><g stroke="null"><path d="m88.8 67.1c-5.5 0-10 4.5-10 10 0 5.5 4.5 10 10 10s10-4.5 10-10c0-5.5-4.5-10-10-10zm0 16.5c-3.6 0-6.5-2.9-6.5-6.5 0-3.6 2.9-6.5 6.5-6.5 3.6 0 6.5 2.9 6.5 6.5 0 3.6-2.9 6.5-6.5 6.5z" class="b"/><path d="m21.2 22.6c0-5.5-4.5-10-10-10s-10 4.5-10 10c0 5.5 4.5 10 10 10s10-4.5 10-10zm-16.5 0c0-3.6 2.9-6.5 6.5-6.5 3.6 0 6.5 2.9 6.5 6.5 0 3.6-2.9 6.5-6.5 6.5 -3.6 0-6.5-2.9-6.5-6.5z" class="b"/><path d="m21.3 43.2c-0.7-0.7-1.8-0.7-2.5 0l-3.2 3.2 -3.2-3.2c-0.7-0.7-1.8-0.7-2.5 0s-0.7 1.8 0 2.5l3.2 3.2 -3.2 3.2c-0.7 0.7-0.7 1.8 0 2.5 0.3 0.3 0.8 0.5 1.2 0.5s0.9-0.2 1.2-0.5l3.2-3.2 3.2 3.2c0.3 0.3 0.8 0.5 1.2 0.5s0.9-0.2 1.2-0.5c0.7-0.7 0.7-1.8 0-2.5l-3.2-3.2 3.2-3.2c0.7-0.7 0.7-1.8 0-2.5z" class="b"/><path d="m34.1 71.5c-0.7-0.7-1.8-0.7-2.5 0l-3.2 3.2 -3.2-3.2c-0.7-0.7-1.8-0.7-2.5 0s-0.7 1.8 0 2.5l3.2 3.2 -3.2 3.2c-0.7 0.7-0.7 1.8 0 2.5 0.3 0.3 0.8 0.5 1.2 0.5s0.9-0.2 1.2-0.5l3.2-3.2 3.2 3.2c0.3 0.3 0.8 0.5 1.2 0.5s0.9-0.2 1.2-0.5c0.7-0.7 0.7-1.8 0-2.5l-3.2-3.2 3.2-3.2c0.7-0.7 0.7-1.8 0-2.5z" class="b"/><path d="m60.3 47.1c0.3 0.3 0.8 0.5 1.2 0.5s0.9-0.2 1.2-0.5l3.2-3.2 3.2 3.2c0.3 0.3 0.8 0.5 1.2 0.5s0.9-0.2 1.2-0.5c0.7-0.7 0.7-1.8 0-2.5l-3.2-3.2 3.2-3.2c0.7-0.7 0.7-1.8 0-2.5s-1.8-0.7-2.5 0l-3.2 3.2 -3.2-3.2c-0.7-0.7-1.8-0.7-2.5 0s-0.7 1.8 0 2.5l3.2 3.2 -3.2 3.2c-0.7 0.7-0.7 1.8 0 2.5z" class="b"/><path d="m63.4 67.4c-0.7-0.7-1.8-0.7-2.5 0 -0.7 0.7-0.7 1.8 0 2.5l5.4 5.5 -10.6 0c-12.7 0-12.9-10.2-12.9-10.6 0-1-0.8-1.7-1.8-1.7 -1 0-1.8 0.8-1.8 1.8 0 0.1 0.2 14.1 16.4 14.1l10.6 0 -5.5 5.5c-0.7 0.7-0.7 1.8 0 2.5 0.3 0.3 0.8 0.5 1.2 0.5 0.4 0 0.9-0.2 1.2-0.5l8.5-8.4c0.3-0.3 0.5-0.8 0.5-1.2 0-0.5-0.2-0.9-0.5-1.2l-8.4-8.5z" class="b"/><path d="m24 24.4c0 0 0.3 0 0.8 0 0 0 0.1 0 0.1 0 0.9 0 1.7-0.7 1.8-1.7 0.1-1-0.7-1.8-1.7-1.9 -0.6 0-1 0-1 0 -1 0-1.8 0.8-1.8 1.8s0.8 1.8 1.7 1.8z" class="b"/><path d="m41.4 38.7c0 0.5 0.1 1 0.1 1.5 0.1 0.9 0.8 1.7 1.8 1.7 0 0 0.1 0 0.1 0 1 0 1.7-0.9 1.7-1.8 0-0.6-0.1-1.1-0.1-1.7 -0.1-1-0.9-1.7-1.9-1.6 -1 0.1-1.7 0.9-1.6 1.9z" class="b"/><path d="m39.6 31.6c0.3 0.6 0.9 1 1.6 1 0.3 0 0.5-0.1 0.8-0.2 0.9-0.4 1.2-1.5 0.8-2.4l-0.2-0.3c-0.2-0.4-0.5-0.9-0.8-1.3 -0.5-0.8-1.6-1-2.4-0.5 -0.8 0.5-1 1.6-0.5 2.4 0.2 0.3 0.4 0.6 0.5 0.9l0.1 0.3z" class="b"/><path d="m34.8 23.1c-0.5-0.2-1.1-0.4-1.6-0.6 -0.9-0.3-1.9 0.2-2.2 1.1 -0.3 0.9 0.2 1.9 1.1 2.2 0.5 0.2 0.9 0.3 1.4 0.5 0.2 0.1 0.5 0.1 0.7 0.1 0.7 0 1.3-0.4 1.6-1.1 0.4-0.9 0-1.9-0.9-2.3z" class="b"/><path d="m44.5 49.9c0.1-0.5 0.1-1.1 0.2-1.6 0.1-1-0.6-1.8-1.6-1.9 -0.9-0.1-1.8 0.6-1.9 1.6 -0.1 0.5-0.1 1-0.2 1.5 -0.1 1 0.5 1.8 1.5 2 0.1 0 0.2 0 0.2 0 0.9 0 1.6-0.6 1.7-1.5z" class="b"/><path d="m41.7 55.8c-0.9-0.2-1.9 0.3-2.1 1.3 -0.1 0.5-0.2 0.8-0.2 0.8 -0.3 0.9 0.3 1.9 1.2 2.2 0.2 0 0.3 0.1 0.5 0.1 0.8 0 1.5-0.5 1.7-1.3 0 0 0.1-0.3 0.2-0.9 0.2-0.9-0.3-1.9-1.3-2.1z" class="b"/></g></svg>
