<svg xmlns:dc="http://purl.org/dc/elements/1.1/" xmlns:cc="http://creativecommons.org/ns#" xmlns:rdf="http://www.w3.org/1999/02/22-rdf-syntax-ns#" xmlns:svg="http://www.w3.org/2000/svg" xmlns="http://www.w3.org/2000/svg" xmlns:sodipodi="http://sodipodi.sourceforge.net/DTD/sodipodi-0.dtd" xmlns:inkscape="http://www.inkscape.org/namespaces/inkscape" viewBox="0 0 16 20" version="1.1" x="0px" y="0px"><g transform="translate(0,-1036.3622)"><g transform="translate(0,0.0198085)"><g transform="translate(1100.5659,-21.019708)"><g transform="translate(-116.0644,4.9999995)"><path style="color:#000000;font-style:normal;font-variant:normal;font-weight:normal;font-stretch:normal;font-size:medium;line-height:normal;font-family:sans-serif;text-indent:0;text-align:start;text-decoration:none;text-decoration-line:none;text-decoration-style:solid;text-decoration-color:#000000;letter-spacing:normal;word-spacing:normal;text-transform:none;direction:ltr;block-progression:tb;writing-mode:lr-tb;baseline-shift:baseline;text-anchor:start;white-space:normal;clip-rule:nonzero;display:inline;overflow:visible;visibility:visible;opacity:1;isolation:auto;mix-blend-mode:normal;color-interpolation:sRGB;color-interpolation-filters:linearRGB;solid-color:#000000;solid-opacity:1;fill:#000000;fill-opacity:1;fill-rule:evenodd;stroke:none;stroke-width:0.99733114;stroke-linecap:round;stroke-linejoin:miter;stroke-miterlimit:4;stroke-dasharray:none;stroke-dashoffset:0;stroke-opacity:1;color-rendering:auto;image-rendering:auto;shape-rendering:auto;text-rendering:auto;enable-background:accumulate" d="M 5.7832031 2.0195312 C 4.8750831 2.0085313 4.0896275 2.6936937 3.5234375 3.8085938 L 3.5214844 3.8183594 L 3.5175781 3.828125 C 3.0988281 4.715025 2.6192506 4.9663531 2.2128906 4.9394531 C 1.8065206 4.9124531 1.2978669 4.5552813 0.93554688 3.7382812 A 0.49871544 0.49871544 0 1 0 0.025390625 4.1425781 C 0.48564062 5.1804781 1.2503944 5.8742938 2.1464844 5.9335938 C 3.0425744 5.9925937 3.8945319 5.3666062 4.4199219 4.2539062 L 4.4140625 4.2675781 C 4.8907925 3.3288781 5.3784112 3.0186375 5.7695312 3.0234375 C 6.1606513 3.0234375 6.7020088 3.3757156 7.2304688 4.2910156 C 7.5359688 4.8201156 7.8444 5.2351625 8.1875 5.5390625 C 8.53059 5.8429625 8.9325581 6.0390625 9.3613281 6.0390625 C 9.7900881 6.0390625 10.192079 5.8442156 10.537109 5.5410156 C 10.882139 5.2378156 11.193816 4.8217688 11.503906 4.2929688 C 11.739926 3.8905688 12.022303 3.7646313 12.289062 3.7695312 C 12.555813 3.7695312 12.842477 3.9234156 13.054688 4.2910156 L 13.056641 4.2910156 C 13.407291 4.8891156 13.92885 5.2983437 14.53125 5.2773438 C 15.13364 5.2563438 15.629024 4.7901594 15.902344 4.1308594 A 0.49909421 0.49909421 0 0 0 14.980469 3.7480469 C 14.796819 4.1910469 14.609824 4.2752969 14.496094 4.2792969 C 14.382784 4.2792969 14.156052 4.1892625 13.919922 3.7890625 L 13.917969 3.7890625 C 13.557069 3.1657625 12.947711 2.7851375 12.306641 2.7734375 C 11.664701 2.7614375 11.027438 3.1327625 10.642578 3.7890625 C 10.366368 4.2600625 10.102796 4.5943156 9.8789062 4.7910156 C 9.6550163 4.9877156 9.4941681 5.0429688 9.3613281 5.0429688 C 9.2284781 5.0429688 9.0708994 4.9889687 8.8496094 4.7929688 C 8.6283194 4.5969688 8.3674531 4.2617156 8.0957031 3.7910156 C 7.4754131 2.7166156 6.6913231 2.0364906 5.7832031 2.0253906 L 5.7832031 2.0195312 z M 5.3164062 7.2636719 C 3.9676463 7.2636719 2.7097756 8.0230875 1.7597656 8.7421875 C 0.80975562 9.4612875 0.15820312 10.183594 0.15820312 10.183594 A 0.49871544 0.49871544 0 1 0 0.8984375 10.851562 C 0.8984375 10.851562 1.4919181 10.195209 2.3613281 9.5371094 C 3.2307281 8.8790094 4.3658962 8.2617188 5.3164062 8.2617188 C 6.4897463 8.2617188 8.1346569 8.90985 9.6542969 9.59375 C 10.414127 9.93565 11.147277 10.282428 11.804688 10.548828 C 12.462108 10.815128 13.027526 11.015625 13.566406 11.015625 C 15.225706 11.015625 15.927734 9.703125 15.927734 9.703125 A 0.4988347 0.4988347 0 0 0 15.027344 9.2734375 C 15.027344 9.2734375 14.743636 10.017578 13.566406 10.017578 C 13.318426 10.017578 12.796877 9.8751 12.179688 9.625 C 11.562508 9.375 10.834603 9.0321469 10.064453 8.6855469 C 8.5241631 7.9923469 6.8304562 7.2636719 5.3164062 7.2636719 z M 0.56445312 13.015625 A 0.499 0.499 0 0 0 0.56445312 14.013672 L 15.443359 14.013672 A 0.499 0.499 0 0 0 15.443359 13.015625 L 0.56445312 13.015625 z " transform="translate(-984.5015,1052.3621)"/></g></g></g></g><text x="0" y="31" fill="#000000" font-size="5px" font-weight="bold" font-family="'Helvetica Neue', Helvetica, Arial-Unicode, Arial, Sans-serif">Created by Chameleon Design</text><text x="0" y="36" fill="#000000" font-size="5px" font-weight="bold" font-family="'Helvetica Neue', Helvetica, Arial-Unicode, Arial, Sans-serif">from the Noun Project</text></svg>
