<svg width="16" height="20" xmlns="http://www.w3.org/2000/svg">

 <g>
  <title>background</title>
  <rect fill="none" id="canvas_background" height="402" width="582" y="-1" x="-1"/>
 </g>
 <g>
  <title>Layer 1</title>
  <g id="svg_1">
   <g id="svg_2">
    <g id="svg_3">
     <g id="svg_4">
      <path id="svg_5" clip-rule="nonzero" fill="#ffffff" fill-rule="evenodd" stroke-width="0.997331" stroke-linecap="round" stroke-miterlimit="4" stroke-dashoffset="0" d="m5.783192,2.019507c-0.90812,-0.011 -1.69357,0.67416 -2.25976,1.78906l-0.00196,0.00977l-0.0039,0.00977c-0.41875,0.88689 -0.89833,1.13822 -1.30469,1.11132c-0.40637,-0.027 -0.91502,-0.38417 -1.27734,-1.20117a0.49872,0.49872 0 1 0 -0.91016,0.4043c0.46025,1.0379 1.225,1.73171 2.12109,1.79101c0.89609,0.059 1.74805,-0.56698 2.27344,-1.67968l-0.00586,0.01367c0.47673,-0.9387 0.96435,-1.24894 1.35547,-1.24414c0.39112,0 0.93248,0.35228 1.46094,1.26758c0.3055,0.5291 0.61393,0.94414 0.95703,1.24804c0.34309,0.3039 0.74506,0.5 1.17383,0.5c0.42876,0 0.83075,-0.19484 1.17578,-0.49804c0.34503,-0.3032 0.65671,-0.71925 0.9668,-1.24805c0.23602,-0.4024 0.51839,-0.52834 0.78515,-0.52344c0.26675,0 0.55342,0.15389 0.76563,0.52149l0.00195,0c0.35065,0.5981 0.87221,1.00732 1.47461,0.98632c0.60239,-0.021 1.09777,-0.48718 1.37109,-1.14648a0.49909,0.49909 0 0 0 -0.92187,-0.38281c-0.18365,0.443 -0.37065,0.52725 -0.48438,0.53125c-0.11331,0 -0.34004,-0.09004 -0.57617,-0.49024l-0.00195,0c-0.3609,-0.6233 -0.97026,-1.00392 -1.61133,-1.01562c-0.64194,-0.012 -1.2792,0.35932 -1.66406,1.01562c-0.27621,0.471 -0.53978,0.80526 -0.76367,1.00196c-0.22389,0.1967 -0.38474,0.25195 -0.51758,0.25195c-0.13285,0 -0.29043,-0.054 -0.51172,-0.25c-0.22129,-0.196 -0.48216,-0.53125 -0.75391,-1.00195c-0.62029,-1.0744 -1.40438,-1.75453 -2.3125,-1.76563l0,-0.00586zm-0.46679,5.24414c-1.34876,0 -2.60663,0.75942 -3.55664,1.47852c-0.95001,0.7191 -1.60157,1.4414 -1.60157,1.4414a0.49872,0.49872 0 1 0 0.74024,0.66797c0,0 0.59348,-0.65635 1.46289,-1.31445c0.8694,-0.6581 2.00457,-1.27539 2.95508,-1.27539c1.17334,0 2.81825,0.64813 4.33789,1.33203c0.75983,0.3419 1.49298,0.68868 2.15039,0.95508c0.65742,0.2663 1.22284,0.4668 1.76172,0.4668c1.6593,0 2.36132,-1.3125 2.36132,-1.3125a0.49883,0.49883 0 0 0 -0.90039,-0.42969c0,0 -0.2837,0.74414 -1.46093,0.74414c-0.24798,0 -0.76953,-0.14248 -1.38672,-0.39258c-0.61718,-0.25 -1.34509,-0.59285 -2.11524,-0.93945c-1.54029,-0.6932 -3.23399,-1.42188 -4.74804,-1.42188zm-4.75196,5.75196a0.499,0.499 0 0 0 0,0.99804l14.87891,0a0.499,0.499 0 0 0 0,-0.99804l-14.87891,0z"/>
     </g>
    </g>
   </g>
  </g>
  <text id="svg_6" font-family="'Helvetica Neue', Helvetica, Arial-Unicode, Arial, Sans-serif" font-weight="bold" font-size="5px" fill="#000000" y="31" x="0">Created by Chameleon Design</text>
  <text id="svg_7" font-family="'Helvetica Neue', Helvetica, Arial-Unicode, Arial, Sans-serif" font-weight="bold" font-size="5px" fill="#000000" y="36" x="0">from the Noun Project</text>
 </g>
</svg>